<?xml version="1.0" encoding="UTF-8"?>
<svg version="1.1" xmlns="http://www.w3.org/2000/svg" width="128" height="128">
<path d="M0 0 C3.49911695 -0.20537903 6.99666666 -0.32829941 10.5 -0.4375 C11.48226563 -0.49615234 12.46453125 -0.55480469 13.4765625 -0.61523438 C19.05225692 -0.74533391 22.31879931 -0.33094706 26.625 3.3828125 C31.12594311 7.86624675 32.07197703 11.02044144 32.125 17.3125 C32.09306101 18.87522911 32.05459773 20.43789839 32 22 C32.66 21.67 33.32 21.34 34 21 C36.62431149 20.90694844 39.22184796 20.87420385 41.84619141 20.88647461 C42.65602982 20.88632858 43.46586823 20.88618256 44.30024719 20.8860321 C46.98404596 20.88673023 49.66777581 20.89451796 52.3515625 20.90234375 C54.20958417 20.90420829 56.06760633 20.90563202 57.92562866 20.90663147 C62.82142488 20.91045385 67.71719155 20.92028177 72.61297607 20.93133545 C77.60656331 20.94155556 82.60015532 20.94613038 87.59375 20.95117188 C97.39584634 20.96190427 107.19792071 20.97897736 117 21 C117.495 19.515 117.495 19.515 118 18 C120.31 17.67 122.62 17.34 125 17 C126.54150391 18.60644531 126.54150391 18.60644531 128 21 C127.93896484 23.91699219 127.93896484 23.91699219 127.3359375 27.296875 C127.12549805 28.54146484 126.91505859 29.78605469 126.69824219 31.06835938 C126.46782227 32.36580078 126.23740234 33.66324219 126 35 C125.61292925 37.52539267 125.23010909 40.05144053 124.8515625 42.578125 C124.44443946 45.13569283 124.03557769 47.69298448 123.625 50.25 C123.4290625 51.53390625 123.233125 52.8178125 123.03125 54.140625 C121.83154626 61.55145316 120.19379837 68.19001694 117 75 C116.01 75 115.02 75 114 75 C114 75.66 114 76.32 114 77 C113.22120483 77.10387024 112.44240967 77.20774048 111.64001465 77.3147583 C104.2268113 78.30513765 96.814879 79.30438645 89.40415192 80.31311417 C85.59606165 80.8311558 81.78760098 81.34599962 77.97802734 81.85302734 C74.28753018 82.34433537 70.59835647 82.84470557 66.90986633 83.35085297 C65.51680824 83.54049225 64.1233334 83.72710104 62.72941589 83.91031647 C52.58506072 85.24664708 42.86940917 87.3458092 33 90 C34.9813387 91.9813387 38.89679932 91.17451999 41.60913086 91.18945312 C42.40585709 91.19774643 43.20258331 91.20603973 44.02345276 91.21458435 C45.7591697 91.23202387 47.4949107 91.2471799 49.23066521 91.26036072 C51.97436163 91.28132272 54.7179373 91.30835087 57.46156311 91.33703613 C63.28682941 91.39684031 69.11215137 91.44893926 74.9375 91.5 C81.68180889 91.55915453 88.42605845 91.62141535 95.17025948 91.69187927 C97.87910706 91.71852146 100.58796035 91.73929662 103.29685974 91.7598877 C104.95173427 91.77648724 106.60660609 91.79335878 108.26147461 91.81054688 C109.01947357 91.81473129 109.77747253 91.81891571 110.55844116 91.82322693 C115.77231824 91.88615912 115.77231824 91.88615912 118 93 C118 95.64 118 98.28 118 101 C116.68 101.33 115.36 101.66 114 102 C114.05800781 102.58007812 114.11601563 103.16015625 114.17578125 103.7578125 C114.42378843 108.05187965 114.51515817 111.02568491 111.6875 114.4375 C107.51854064 118.41255428 105.30702473 119.30998828 99.625 119.375 C98.50351563 119.40335937 97.38203125 119.43171875 96.2265625 119.4609375 C92.33964872 118.9056641 90.7779459 117.71904952 88 115 C86 112 86 112 86 102 C75.77 102 65.54 102 55 102 C55 104.97 55 107.94 55 111 C52.5993699 114.56850421 50.56530858 116.62312761 47 119 C41.78453513 119.64722941 35.97631619 120.15008514 31.375 117.25 C29.091691 115.08686515 28.11521285 113.87361824 27 111 C26.98046875 108.6328125 26.98046875 108.6328125 27.1875 106.125 C27.30210697 101.98708502 27.29105264 101.34926317 24.5 98 C21.37594896 94.25113875 21.31501053 92.08428915 21.5859375 87.3359375 C22.20195421 83.86067343 23.31397785 82.27278798 26 80 C28.31846259 78.96599048 30.65080797 77.96215449 33 77 C29.60027803 67.06756565 26.18402869 57.1973 22.06640625 47.53515625 C19.25940163 40.86209399 17.29383464 35.29704204 18 28 C18.97063483 25.65429915 19.96898053 23.31979381 21 21 C21.41180713 17.49963935 21.42949905 15.75673641 19.6875 12.6875 C15.70169608 8.70169608 9.34000645 9.58388585 4.0546875 9.28125 C1 9 1 9 0 8 C-0.14115161 5.32941149 -0.04247107 2.67567762 0 0 Z M39 102 C37.87483915 103.83284443 37.87483915 103.83284443 37 106 C37.33 106.99 37.66 107.98 38 109 C39.91666667 109.83333333 39.91666667 109.83333333 42 110 C44.1564434 109.18964132 44.1564434 109.18964132 44.8125 107.125 C45.23815878 104.93227393 45.23815878 104.93227393 43.75 103.25 C41.95156348 101.7093809 41.95156348 101.7093809 39 102 Z M98 102 C96.87483915 103.83284443 96.87483915 103.83284443 96 106 C96.33 106.99 96.66 107.98 97 109 C97.99 109.33 98.98 109.66 100 110 C101.32 108.68 102.64 107.36 104 106 C103.67 105.01 103.34 104.02 103 103 C101.35 102.67 99.7 102.34 98 102 Z " fill="#E7ABA2" transform="translate(0,9)"/>
<path d="M0 0 C0.7734375 0.0309375 1.546875 0.061875 2.34375 0.09375 C3.1171875 0.1040625 3.890625 0.114375 4.6875 0.125 C7.4072412 0.71624809 8.17685387 1.37151597 9.84375 3.59375 C10.18432617 6.32104492 10.18432617 6.32104492 10.13671875 9.57421875 C10.12705078 10.73759766 10.11738281 11.90097656 10.10742188 13.09960938 C10.08228516 14.31455078 10.05714844 15.52949219 10.03125 16.78125 C10.01771484 18.00779297 10.00417969 19.23433594 9.99023438 20.49804688 C9.95484036 23.5301345 9.90103295 26.56199691 9.84375 29.59375 C4.89375 29.59375 -0.05625 29.59375 -5.15625 29.59375 C-5.23723443 25.69749894 -5.29674807 21.8029337 -5.34375 17.90625 C-5.36888672 16.80345703 -5.39402344 15.70066406 -5.41992188 14.56445312 C-5.42958984 13.49775391 -5.43925781 12.43105469 -5.44921875 11.33203125 C-5.4649292 10.35274658 -5.48063965 9.37346191 -5.49682617 8.36450195 C-5.02814389 4.55154481 -3.94131452 1.08528951 0 0 Z " fill="#E4AAA0" transform="translate(43.15625,-0.59375)"/>
<path d="M0 0 C0.94359375 0.66128906 0.94359375 0.66128906 1.90625 1.3359375 C2.54046875 1.738125 3.1746875 2.1403125 3.828125 2.5546875 C4.43140625 2.9775 5.0346875 3.4003125 5.65625 3.8359375 C6.57664062 4.47015625 6.57664062 4.47015625 7.515625 5.1171875 C7.97453125 5.519375 8.4334375 5.9215625 8.90625 6.3359375 C8.90625 6.9959375 8.90625 7.6559375 8.90625 8.3359375 C5.95519616 10.0364167 2.99434878 11.71904843 0.03125 13.3984375 C-0.81050781 13.88376953 -1.65226562 14.36910156 -2.51953125 14.86914062 C-3.72802734 15.55073242 -3.72802734 15.55073242 -4.9609375 16.24609375 C-5.70456543 16.67027588 -6.44819336 17.09445801 -7.21435547 17.53149414 C-7.83455566 17.79696045 -8.45475586 18.06242676 -9.09375 18.3359375 C-9.75375 18.0059375 -10.41375 17.6759375 -11.09375 17.3359375 C-11.5078125 14.61328125 -11.5078125 14.61328125 -11.71875 11.2734375 C-11.79351562 10.16871094 -11.86828125 9.06398438 -11.9453125 7.92578125 C-11.99429688 7.07113281 -12.04328125 6.21648438 -12.09375 5.3359375 C-10.52328257 4.27497287 -8.93680483 3.23767515 -7.34375 2.2109375 C-6.46203125 1.63085938 -5.5803125 1.05078125 -4.671875 0.453125 C-2.09375 -0.6640625 -2.09375 -0.6640625 0 0 Z " fill="#E2A89F" transform="translate(73.09375,7.6640625)"/>
<path d="M0 0 C0.99 0.33 1.98 0.66 3 1 C3.33 3.31 3.66 5.62 4 8 C0.71106997 9.50605402 -2.58157446 11.00380532 -5.875 12.5 C-6.81214844 12.92925781 -7.74929687 13.35851563 -8.71484375 13.80078125 C-9.61074219 14.20683594 -10.50664063 14.61289062 -11.4296875 15.03125 C-12.25710449 15.40830078 -13.08452148 15.78535156 -13.93701172 16.17382812 C-16 17 -16 17 -18 17 C-18 14.36 -18 11.72 -18 9 C-12 6 -6 3 0 0 Z " fill="#E1A79E" transform="translate(110,4)"/>
<path d="M0 0 C0 2.31 0 4.62 0 7 C-2.51478831 8.32532061 -5.03581987 9.63520231 -7.5625 10.9375 C-8.26697266 11.31068359 -8.97144531 11.68386719 -9.69726562 12.06835938 C-14.20668054 14.37501862 -17.94491389 15.58151061 -23 16 C-23 14.02 -23 12.04 -23 10 C-20.8137775 8.89324381 -18.62609052 7.78955622 -16.4375 6.6875 C-15.82841797 6.37876953 -15.21933594 6.07003906 -14.59179688 5.75195312 C-3.1484375 0 -3.1484375 0 0 0 Z " fill="#DFA69C" transform="translate(115,13)"/>
<path d="M0 0 C2 1.875 2 1.875 3 4 C3 4.66 3 5.32 3 6 C1.25877451 7.03572896 -0.49336595 8.0531252 -2.25 9.0625 C-3.22453125 9.63097656 -4.1990625 10.19945312 -5.203125 10.78515625 C-8 12 -8 12 -10.359375 11.68359375 C-10.90078125 11.45800781 -11.4421875 11.23242188 -12 11 C-12.6875 7.6875 -12.6875 7.6875 -13 4 C-9.86432959 -0.47952916 -5.13752267 -0.7879636 0 0 Z " fill="#E2A89E" transform="translate(69,0)"/>
<path d="M0 0 C0.57975586 0.36657715 1.15951172 0.7331543 1.75683594 1.11083984 C1.41403336 3.92671818 0.96891836 4.92737172 -1.21191406 6.81396484 C-7.26733756 10.51450143 -11.15147777 11.79713207 -18.24316406 11.11083984 C-18.24316406 10.12083984 -18.24316406 9.13083984 -18.24316406 8.11083984 C-15.67018624 6.54910214 -13.08724944 5.01177242 -10.49316406 3.48583984 C-9.39875 2.81681641 -9.39875 2.81681641 -8.28222656 2.13427734 C-7.21875 1.51552734 -7.21875 1.51552734 -6.13378906 0.88427734 C-5.48442383 0.49675293 -4.83505859 0.10922852 -4.16601562 -0.29003906 C-2.24316406 -0.88916016 -2.24316406 -0.88916016 0 0 Z " fill="#E1A79D" transform="translate(83.2431640625,17.88916015625)"/>
<path d="M0 0 C1.80859375 1.52734375 1.80859375 1.52734375 3 3 C0.58535319 4.15026086 -1.83153318 5.29532205 -4.25 6.4375 C-4.93191406 6.76298828 -5.61382812 7.08847656 -6.31640625 7.42382812 C-6.98027344 7.73642578 -7.64414063 8.04902344 -8.328125 8.37109375 C-9.23933105 8.8031311 -9.23933105 8.8031311 -10.16894531 9.24389648 C-12.08888746 10.03670459 -13.9758162 10.54475403 -16 11 C-13.78505341 1.40189812 -9.86780088 -1.82859081 0 0 Z " fill="#DFA69C" transform="translate(108,0)"/>
<path d="M0 0 C0 2.31 0 4.62 0 7 C-4.62 7 -9.24 7 -14 7 C-11.28443311 4.28443311 -9.8303737 3.2713798 -6.4375 1.8125 C-5.65246094 1.46832031 -4.86742188 1.12414062 -4.05859375 0.76953125 C-2 0 -2 0 0 0 Z " fill="#D8A097" transform="translate(115,22)"/>
<path d="M0 0 C0.66 1.65 1.32 3.3 2 5 C-2.29 5 -6.58 5 -11 5 C-4.5 -1.5 -4.5 -1.5 0 0 Z " fill="#D8A097" transform="translate(88,24)"/>
<path d="M0 0 C0.66 0.33 1.32 0.66 2 1 C1.34 1.66 0.68 2.32 0 3 C2.97 3.495 2.97 3.495 6 4 C6 4.33 6 4.66 6 5 C3.03 5 0.06 5 -3 5 C-3 4.01 -3 3.02 -3 2 C-2.01 1.34 -1.02 0.68 0 0 Z " fill="#D19992" transform="translate(68,24)"/>
</svg>
