<?xml version="1.0" encoding="UTF-8"?>
<svg version="1.1" xmlns="http://www.w3.org/2000/svg" width="128" height="128">
<path d="M0 0 C13.480001 10.17668264 22.05008991 24.69579857 25.37890625 41.1875 C25.78212621 44.97093228 25.85705251 48.69731658 25.81640625 52.5 C25.80504639 54.00385254 25.80504639 54.00385254 25.79345703 55.53808594 C25.398291 73.42728092 18.05050301 88.92491915 5.13671875 101.34375 C-7.10371862 111.7782212 -20.50574152 116.57258744 -36.45874023 116.61303711 C-38.65399971 116.62484087 -40.8463558 116.67399567 -43.04101562 116.72460938 C-59.91983362 116.91914385 -74.07298598 110.06885273 -86.42578125 98.6015625 C-97.75830037 86.13982439 -103.52305383 71.58648202 -103.27294922 54.82177734 C-103.24609972 52.68797458 -103.27285666 50.55942717 -103.3046875 48.42578125 C-103.34719359 31.74461067 -96.31771395 17.53661017 -85.03515625 5.3828125 C-61.28634486 -16.21400303 -26.1875057 -18.10879679 0 0 Z " fill="#EAAFA5" transform="translate(102.62109375,11.8125)"/>
<path d="M0 0 C5.20120629 3.12072377 8.15504607 6.94616174 10.5 12.5 C10.5 13.16 10.5 13.82 10.5 14.5 C13.47 14.5 16.44 14.5 19.5 14.5 C19.5 13.84 19.5 13.18 19.5 12.5 C22.40600261 11.24335022 24.29604584 10.5 27.5 10.5 C27.5 11.82 27.5 13.14 27.5 14.5 C28.056875 14.149375 28.61375 13.79875 29.1875 13.4375 C32.05043998 12.27684866 33.55114287 12.80068562 36.5 13.5 C36.31242447 22.2307885 34.87574981 30.63894962 33.1875 39.1875 C32.98680908 40.26322266 32.78611816 41.33894531 32.5793457 42.44726562 C32.37140381 43.45853516 32.16346191 44.46980469 31.94921875 45.51171875 C31.67597778 46.88009888 31.67597778 46.88009888 31.3972168 48.27612305 C30.5 50.5 30.5 50.5 28.68408203 51.76733398 C26.45501814 52.51508949 24.43923764 52.93326811 22.10546875 53.2109375 C20.81225708 53.37360107 20.81225708 53.37360107 19.49291992 53.53955078 C18.56713135 53.65024902 17.64134277 53.76094727 16.6875 53.875 C7.52326017 55.03941919 -1.55828766 56.48355909 -10.64575195 58.14208984 C-16.25573059 59.15512165 -21.82673959 59.93325227 -27.5 60.5 C-27.83 61.49 -28.16 62.48 -28.5 63.5 C-9.36 63.5 9.78 63.5 29.5 63.5 C29.83 65.15 30.16 66.8 30.5 68.5 C29.015 68.995 29.015 68.995 27.5 69.5 C27.5825 70.386875 27.665 71.27375 27.75 72.1875 C27.44530814 76.22466718 26.27959995 77.63864711 23.5 80.5 C20.30766515 82.09616743 16.96538503 82.01466114 13.5 81.5 C11.06880377 79.62984906 9.85930827 78.21861655 8.5 75.5 C8.5 73.52 8.5 71.54 8.5 69.5 C1.24 69.5 -6.02 69.5 -13.5 69.5 C-13.5 71.81 -13.5 74.12 -13.5 76.5 C-14.9375 79.4375 -14.9375 79.4375 -17.5 81.5 C-20.64913805 82.22265668 -23.34609011 82.18587702 -26.5 81.5 C-29.48888199 79.50741201 -31.1579149 78.12974507 -31.9140625 74.52734375 C-32.11677761 72.51896257 -32.30861972 70.50949296 -32.5 68.5 C-33.03625 67.819375 -33.5725 67.13875 -34.125 66.4375 C-35.5 64.5 -35.5 64.5 -35.4375 61 C-34.42631286 57.22490134 -33.65572204 55.75408717 -30.5 53.5 C-29.18 53.5 -27.86 53.5 -26.5 53.5 C-26.79132812 52.90316406 -27.08265625 52.30632812 -27.3828125 51.69140625 C-30.15915098 45.81569619 -32.59025554 39.85285049 -34.8125 33.75 C-35.07885254 33.04174072 -35.34520508 32.33348145 -35.61962891 31.60375977 C-37.21857184 27.11401621 -37.94620657 23.33092985 -37.5 18.5 C-36.84 17.51 -36.18 16.52 -35.5 15.5 C-35.81730524 11.86060068 -35.81730524 11.86060068 -36.5 8.5 C-37.34304687 8.36722656 -38.18609375 8.23445313 -39.0546875 8.09765625 C-40.15039062 7.92105469 -41.24609375 7.74445312 -42.375 7.5625 C-43.46554688 7.38847656 -44.55609375 7.21445312 -45.6796875 7.03515625 C-48.5 6.5 -48.5 6.5 -50.5 5.5 C-50.17 3.85 -49.84 2.2 -49.5 0.5 C-36.61287104 -0.1883333 -36.61287104 -0.1883333 -32.8125 2.25 C-29.24534124 5.72074907 -28.54281453 7.21556418 -28.375 12.25 C-28.41625 13.3225 -28.4575 14.395 -28.5 15.5 C-27.84 15.17 -27.18 14.84 -26.5 14.5 C-24.97851674 14.41627341 -23.45344222 14.39269973 -21.9296875 14.40234375 C-21.03378906 14.40556641 -20.13789062 14.40878906 -19.21484375 14.41210938 C-18.27769531 14.42048828 -17.34054688 14.42886719 -16.375 14.4375 C-15.43011719 14.44201172 -14.48523437 14.44652344 -13.51171875 14.45117188 C-11.17441613 14.46297643 -8.83723939 14.47944241 -6.5 14.5 C-6.995 13.51 -6.995 13.51 -7.5 12.5 C-7.90626411 9.11640032 -7.99665767 5.87615605 -7.5 2.5 C-4.87567404 -0.1993067 -3.6961316 -0.73922632 0 0 Z " fill="#FEFDFD" transform="translate(70.5,26.5)"/>
<path d="M0 0 C5.20120629 3.12072377 8.15504607 6.94616174 10.5 12.5 C10.5 13.16 10.5 13.82 10.5 14.5 C13.47 14.5 16.44 14.5 19.5 14.5 C19.5 13.84 19.5 13.18 19.5 12.5 C22.40600261 11.24335022 24.29604584 10.5 27.5 10.5 C27.5 11.82 27.5 13.14 27.5 14.5 C28.16 14.83 28.82 15.16 29.5 15.5 C11.02 15.5 -7.46 15.5 -26.5 15.5 C-26.5 15.17 -26.5 14.84 -26.5 14.5 C-19.9 14.5 -13.3 14.5 -6.5 14.5 C-6.83 13.84 -7.16 13.18 -7.5 12.5 C-7.90626411 9.11640032 -7.99665767 5.87615605 -7.5 2.5 C-4.87567404 -0.1993067 -3.6961316 -0.73922632 0 0 Z " fill="#F0D1CC" transform="translate(70.5,26.5)"/>
<path d="M0 0 C2.375 0.6875 2.375 0.6875 3.375 1.6875 C3.46131874 3.03017413 3.48206473 4.37724322 3.47265625 5.72265625 C3.46943359 6.53154297 3.46621094 7.34042969 3.46289062 8.17382812 C3.45451172 9.02396484 3.44613281 9.87410156 3.4375 10.75 C3.43298828 11.60400391 3.42847656 12.45800781 3.42382812 13.33789062 C3.41200373 15.45445663 3.39406769 17.57098685 3.375 19.6875 C0.405 19.6875 -2.565 19.6875 -5.625 19.6875 C-5.70569658 16.72862541 -5.76534665 13.7719341 -5.8125 10.8125 C-5.83763672 9.97074219 -5.86277344 9.12898438 -5.88867188 8.26171875 C-5.89833984 7.45605469 -5.90800781 6.65039062 -5.91796875 5.8203125 C-5.9336792 5.07668457 -5.94938965 4.33305664 -5.96557617 3.56689453 C-5.85318604 2.94669434 -5.7407959 2.32649414 -5.625 1.6875 C-2.625 -0.3125 -2.625 -0.3125 0 0 Z " fill="#FEFDFD" transform="translate(52.625,20.3125)"/>
<path d="M0 0 C2.59204262 1.61126974 3.0965169 2.72235966 4.3125 5.4375 C2.69079621 6.44283667 1.06502763 7.44161907 -0.5625 8.4375 C-1.91988281 9.2728125 -1.91988281 9.2728125 -3.3046875 10.125 C-5.6875 11.4375 -5.6875 11.4375 -7.6875 11.4375 C-7.97534504 8.38634255 -8.1174258 5.47922506 -7.6875 2.4375 C-4.96870296 -0.28129704 -3.77075211 -0.78922719 0 0 Z " fill="#FDFAFA" transform="translate(70.6875,26.5625)"/>
<path d="M0 0 C-0.1640625 1.828125 -0.1640625 1.828125 -1 4 C-3.3984375 5.484375 -3.3984375 5.484375 -6.375 6.75 C-7.84066406 7.39195313 -7.84066406 7.39195313 -9.3359375 8.046875 C-12 9 -12 9 -15 9 C-15 7.35 -15 5.7 -15 4 C-13.06767179 3.13419713 -11.12892806 2.28270059 -9.1875 1.4375 C-8.10855469 0.96183594 -7.02960938 0.48617188 -5.91796875 -0.00390625 C-3 -1 -3 -1 0 0 Z " fill="#FDF9F9" transform="translate(98,25)"/>
<path d="M0 0 C0 1.65 0 3.3 0 5 C-1.74552473 5.84266711 -3.4966208 6.67380038 -5.25 7.5 C-6.22453125 7.9640625 -7.1990625 8.428125 -8.203125 8.90625 C-11 10 -11 10 -15 10 C-14.90625 8.203125 -14.90625 8.203125 -14 6 C-11.09375 4.296875 -11.09375 4.296875 -7.5 2.75 C-5.72109375 1.96882813 -5.72109375 1.96882813 -3.90625 1.171875 C-1 0 -1 0 0 0 Z " fill="#FCF8F8" transform="translate(98,30)"/>
<path d="M0 0 C0 1.32 0 2.64 0 4 C-2.25 5.8125 -2.25 5.8125 -5 7 C-7.3125 6.6875 -7.3125 6.6875 -9 6 C-9 2 -9 2 -7.3125 0.1875 C-4.42050674 -1.29757762 -3.04794934 -0.93131785 0 0 Z " fill="#FDF9F8" transform="translate(68,21)"/>
<path d="M0 0 C0.94875 0.04125 1.8975 0.0825 2.875 0.125 C3.205 1.115 3.535 2.105 3.875 3.125 C2.4187455 3.79619549 0.95992133 4.46181807 -0.5 5.125 C-1.71816406 5.681875 -1.71816406 5.681875 -2.9609375 6.25 C-5.125 7.125 -5.125 7.125 -7.125 7.125 C-4.56730769 0.18269231 -4.56730769 0.18269231 0 0 Z " fill="#FBF5F4" transform="translate(91.125,19.875)"/>
<path d="M0 0 C0 0.99 0 1.98 0 3 C-8.261959 7.59225513 -8.261959 7.59225513 -13 7 C-9.7518905 3.1786947 -5.05744645 0 0 0 Z " fill="#FCF9F8" transform="translate(78,33)"/>
<path d="M0 0 C0 1.32 0 2.64 0 4 C0.66 4.33 1.32 4.66 2 5 C-1.3 5 -4.6 5 -8 5 C-8 4.01 -8 3.02 -8 2 C-5.09399739 0.74335022 -3.20395416 0 0 0 Z " fill="#F5E3E0" transform="translate(98,37)"/>
<path d="M0 0 C0.33 1.65 0.66 3.3 1 5 C-0.65 5.33 -2.3 5.66 -4 6 C-4.33 4.35 -4.66 2.7 -5 1 C-3 0 -3 0 0 0 Z " fill="#EBBCB4" transform="translate(50,96)"/>
<path d="M0 0 C2.0625 0.4375 2.0625 0.4375 4 1 C3.67 2.65 3.34 4.3 3 6 C1.68 5.67 0.36 5.34 -1 5 C-1 1 -1 1 0 0 Z " fill="#EBB9B1" transform="translate(87,96)"/>
<path d="M0 0 C0.66 0.66 1.32 1.32 2 2 C0.21046815 2.83790789 -1.58169695 3.67019396 -3.375 4.5 C-4.87160156 5.19609375 -4.87160156 5.19609375 -6.3984375 5.90625 C-9 7 -9 7 -11 7 C-11 6.34 -11 5.68 -11 5 C-7.37 3.35 -3.74 1.7 0 0 Z " fill="#EDC3BD" transform="translate(95,22)"/>
<path d="M0 0 C0.66 0.99 1.32 1.98 2 3 C1.030625 3.33 0.06125 3.66 -0.9375 4 C-4.10721418 5.60746443 -4.10721418 5.60746443 -4.62109375 7.98046875 C-4.85087251 9.97777644 -4.93411797 11.99059814 -5 14 C-5.33 14 -5.66 14 -6 14 C-6 11.36 -6 8.72 -6 6 C-6.66 5.67 -7.32 5.34 -8 5 C-2.25 2 -2.25 2 0 2 C0 1.34 0 0.68 0 0 Z " fill="#EFCBC5" transform="translate(68,23)"/>
</svg>
