<?xml version="1.0" encoding="UTF-8"?>
<svg version="1.1" xmlns="http://www.w3.org/2000/svg" width="128" height="128">
<path d="M0 0 C13.480001 10.17668264 22.05008991 24.69579857 25.37890625 41.1875 C25.78212621 44.97093228 25.85705251 48.69731658 25.81640625 52.5 C25.80504639 54.00385254 25.80504639 54.00385254 25.79345703 55.53808594 C25.398291 73.42728092 18.05050301 88.92491915 5.13671875 101.34375 C-7.10371862 111.7782212 -20.50574152 116.57258744 -36.45874023 116.61303711 C-38.65399971 116.62484087 -40.8463558 116.67399567 -43.04101562 116.72460938 C-59.91983362 116.91914385 -74.07298598 110.06885273 -86.42578125 98.6015625 C-97.75830037 86.13982439 -103.52305383 71.58648202 -103.27294922 54.82177734 C-103.24609972 52.68797458 -103.27285666 50.55942717 -103.3046875 48.42578125 C-103.34719359 31.74461067 -96.31771395 17.53661017 -85.03515625 5.3828125 C-61.28634486 -16.21400303 -26.1875057 -18.10879679 0 0 Z " fill="#F18057" transform="translate(102.62109375,11.8125)"/>
<path d="M0 0 C10.06838838 4.80004562 19.18762797 11.78318107 28.1875 18.3125 C31.37594886 20.22556932 34.42328478 21.03752317 38 22 C38.14925086 26.28656134 38.2576289 30.57171473 38.32958984 34.86010742 C38.35961041 36.31610483 38.40044228 37.77192369 38.45263672 39.22729492 C38.92856767 52.8473189 38.92856767 52.8473189 35.65625 57.46875 C32.15479379 60.65485767 28.58858243 60.72657253 24.0078125 60.61523438 C23.05648437 60.55658203 22.10515625 60.49792969 21.125 60.4375 C20.15046875 60.40591797 19.1759375 60.37433594 18.171875 60.34179688 C15.77811023 60.25965789 13.39064832 60.14491673 11 60 C9.63160637 57.26321275 9.78365182 54.95735576 9.68359375 51.8984375 C9.64169922 50.68671875 9.59980469 49.475 9.55664062 48.2265625 C9.51732422 46.95554688 9.47800781 45.68453125 9.4375 44.375 C9.39431641 43.09625 9.35113281 41.8175 9.30664062 40.5 C9.2003019 37.33346918 9.0996233 34.16674921 9 31 C3.72 31 -1.56 31 -7 31 C-7.09087891 33.88878906 -7.09087891 33.88878906 -7.18359375 36.8359375 C-7.26798651 39.34896649 -7.35263514 41.8619869 -7.4375 44.375 C-7.47681641 45.64601562 -7.51613281 46.91703125 -7.55664062 48.2265625 C-7.59853516 49.43828125 -7.64042969 50.65 -7.68359375 51.8984375 C-7.72025146 53.01911621 -7.75690918 54.13979492 -7.79467773 55.29443359 C-8 58 -8 58 -9 60 C-12.37409559 60.20453151 -15.74658992 60.32801449 -19.125 60.4375 C-20.07632813 60.49615234 -21.02765625 60.55480469 -22.0078125 60.61523438 C-26.58858243 60.72657253 -30.15479379 60.65485767 -33.65625 57.46875 C-37.7920777 51.62780035 -36.61975652 43.88720452 -36.375 37.0625 C-36.34486529 35.60096634 -36.31749563 34.1393729 -36.29296875 32.67773438 C-36.22724219 29.11723626 -36.12391851 25.55900308 -36 22 C-35.35208496 21.76055664 -34.70416992 21.52111328 -34.03662109 21.27441406 C-28.75694658 19.25557128 -24.22075438 17.10333259 -19.625 13.75 C-18.52942699 12.96245384 -17.43305181 12.17602259 -16.3359375 11.390625 C-15.78905273 10.99552734 -15.24216797 10.60042969 -14.67871094 10.19335938 C-10.94335796 7.53797756 -7.09071262 5.05460623 -3.265625 2.53125 C-1.12698682 1.19028558 -1.12698682 1.19028558 0 0 Z " fill="#FEFCFB" transform="translate(63,48)"/>
<path d="M0 0 C3.28204162 1.61856125 6.13258529 3.69390178 9.0625 5.875 C10.73493038 7.07265799 12.40811726 8.26926023 14.08203125 9.46484375 C15.32073975 10.36178955 15.32073975 10.36178955 16.58447266 11.27685547 C19.4530091 13.32315931 22.37969301 15.26350557 25.33154297 17.18676758 C40.60190796 27.14223714 40.60190796 27.14223714 41.75 32.5 C40.78991098 36.98041545 39.41195911 38.95101526 36 42 C31.6065851 43.26356939 29.6851982 43.34649227 25.5625 41.26171875 C24.3614772 40.42267786 23.1744484 39.56335178 22 38.6875 C20.69029813 37.76534946 19.38039613 36.84348311 18.0703125 35.921875 C17.40290039 35.44169922 16.73548828 34.96152344 16.04785156 34.46679688 C12.69579693 32.06584978 9.28982847 29.74785549 5.875 27.4375 C4.95267578 26.79397583 4.95267578 26.79397583 4.01171875 26.13745117 C-0.61757502 22.95149412 -0.61757502 22.95149412 -6 22 C-8.83878169 23.43746265 -8.83878169 23.43746265 -11.6875 25.6875 C-12.82846811 26.51304575 -13.97045602 27.33718329 -15.11328125 28.16015625 C-15.73025879 28.61148926 -16.34723633 29.06282227 -16.98291016 29.52783203 C-20.74752712 32.27542829 -24.54645423 34.9673259 -28.375 37.625 C-29.12354248 38.16987061 -29.87208496 38.71474121 -30.64331055 39.27612305 C-34.36544206 41.84443938 -36.22429982 43.00078592 -40.85546875 42.99609375 C-44.20582449 41.93480094 -46.03411135 40.68303585 -48.11328125 37.81640625 C-49.83815545 34.28307363 -49.62770895 31.89179551 -49 28 C-44.95491598 24.19935575 -40.06375542 21.30057647 -35.4375 18.25 C-33.82681952 17.18229679 -32.21614244 16.11458845 -30.60546875 15.046875 C-29.82091309 14.52802734 -29.03635742 14.00917969 -28.22802734 13.47460938 C-25.23030679 11.49058218 -22.2399116 9.49577537 -19.25 7.5 C-17.5 6.33333333 -15.75 5.16666667 -14 4 C-13.06671875 3.2678125 -12.1334375 2.535625 -11.171875 1.78125 C-7.29228951 -0.39743348 -4.29219445 -1.01189295 0 0 Z " fill="#FEFCFB" transform="translate(68,21)"/>
</svg>
