<?xml version="1.0" encoding="UTF-8"?>
<svg version="1.1" xmlns="http://www.w3.org/2000/svg" width="128" height="128">
<path d="M0 0 C2.12133789 1.17993164 2.12133789 1.17993164 4.22265625 2.66015625 C5.39272217 3.47407837 5.39272217 3.47407837 6.58642578 4.30444336 C7.40353027 4.88460205 8.22063477 5.46476074 9.0625 6.0625 C10.76916364 7.25313127 12.47619448 8.44323638 14.18359375 9.6328125 C15.00972168 10.21192383 15.83584961 10.79103516 16.68701172 11.38769531 C20.55903266 14.08674812 24.49047559 16.69114389 28.43359375 19.28515625 C30.11362697 20.40773553 31.77387364 21.56065076 33.41015625 22.74609375 C34.53744141 23.55240234 34.53744141 23.55240234 35.6875 24.375 C36.31011719 24.83648437 36.93273437 25.29796875 37.57421875 25.7734375 C39.99256813 26.99624218 42.01292482 27.51635965 44.65161133 28.07666016 C45.46503494 28.25121735 46.27845856 28.42577454 47.11653137 28.60562134 C48.04884834 28.80083878 48.04884834 28.80083878 49 29 C49.10161289 35.58352441 49.1715547 42.16684577 49.21972656 48.75097656 C49.23981316 50.98966021 49.2670878 53.22829158 49.30175781 55.46679688 C49.35040464 58.68893349 49.37299874 61.91037501 49.390625 65.1328125 C49.41127014 66.12991241 49.43191528 67.12701233 49.45318604 68.15432739 C49.45542005 75.10888334 48.15188009 78.78419326 43.18237305 83.85449219 C40.08108209 85.48233167 37.57055899 85.35464156 34.08203125 85.328125 C33.42418137 85.32625183 32.76633148 85.32437866 32.08854675 85.32244873 C30.70424294 85.31574812 29.31995742 85.30187313 27.93579102 85.28125 C25.80923007 85.24995187 23.6834096 85.24026293 21.55664062 85.234375 C11.16359463 85.16359463 11.16359463 85.16359463 10 84 C9.8396444 80.97192956 9.74039552 77.96414546 9.68359375 74.93359375 C9.66281265 74.02497086 9.64203156 73.11634796 9.62062073 72.18019104 C9.55502328 69.26604054 9.4961932 66.35179696 9.4375 63.4375 C9.39432446 61.46678709 9.35071049 59.49608374 9.30664062 57.52539062 C9.19850314 52.68368791 9.09950598 47.84191872 9 43 C0.75 43 -7.5 43 -16 43 C-16.06058594 45.94808594 -16.12117188 48.89617187 -16.18359375 51.93359375 C-16.24533235 54.77647602 -16.30874105 57.61931644 -16.37231445 60.4621582 C-16.41573144 62.44389146 -16.45740137 64.42566378 -16.49731445 66.4074707 C-16.55485383 69.2496317 -16.61859445 72.09159483 -16.68359375 74.93359375 C-16.70030624 75.82525742 -16.71701874 76.71692108 -16.73423767 77.63560486 C-16.88612829 83.88612829 -16.88612829 83.88612829 -18 85 C-20.29151417 85.08790975 -22.58572524 85.10694038 -24.87890625 85.09765625 C-25.90889992 85.09553383 -25.90889992 85.09553383 -26.95970154 85.09336853 C-29.16067801 85.08775479 -31.36155409 85.07520007 -33.5625 85.0625 C-35.05143083 85.05748676 -36.54036324 85.05292355 -38.02929688 85.04882812 C-41.68623075 85.03778093 -45.34310558 85.02050713 -49 85 C-49 84.34 -49 83.68 -49 83 C-49.598125 82.773125 -50.19625 82.54625 -50.8125 82.3125 C-53.8097432 80.51415408 -54.55755947 79.2272026 -56 76 C-56.41157135 72.40722931 -56.34877145 68.84254549 -56.29296875 65.23046875 C-56.28872391 64.19432938 -56.28447906 63.15819 -56.28010559 62.09065247 C-56.26334605 58.78933458 -56.2256981 55.48863263 -56.1875 52.1875 C-56.17244967 49.94597237 -56.15876188 47.70443515 -56.14648438 45.46289062 C-56.11345148 39.97505114 -56.06327893 34.48756958 -56 29 C-55.37723175 28.86903931 -54.7544635 28.73807861 -54.11282349 28.60314941 C-53.29844818 28.42795776 -52.48407288 28.25276611 -51.64501953 28.07226562 C-50.83662628 27.90005493 -50.02823303 27.72784424 -49.19534302 27.55041504 C-46.68781015 26.92172795 -44.94628761 26.04225744 -42.875 24.5 C-42.13121094 23.96761719 -41.38742188 23.43523437 -40.62109375 22.88671875 C-39.75613281 22.26410156 -38.89117187 21.64148438 -38 21 C-35.65721723 19.4202828 -33.29586166 17.8688302 -30.9375 16.3125 C-24.61074425 12.10896882 -18.34412547 7.82138106 -12.10327148 3.49145508 C-5.0441911 -1.39299754 -5.0441911 -1.39299754 0 0 Z " fill="#E26951" transform="translate(68,42)"/>
<path d="M0 0 C2.97 0 5.94 0 9 0 C9 0.66 9 1.32 9 2 C9.81017578 2.12568359 9.81017578 2.12568359 10.63671875 2.25390625 C13.83093218 3.26232735 16.08919081 4.98836424 18.8125 6.9375 C19.96789875 7.75511052 21.12418557 8.57146718 22.28125 9.38671875 C23.18810547 10.02746338 23.18810547 10.02746338 24.11328125 10.68115234 C27.31429278 12.91871242 30.56158418 15.08585154 33.8125 17.25 C34.44526855 17.67273193 35.07803711 18.09546387 35.72998047 18.53100586 C39.08937818 20.76574332 42.4780274 22.92187158 45.9375 25 C46.948125 25.66 47.95875 26.32 49 27 C49 27.66 49 28.32 49 29 C49.69738281 29.2475 50.39476563 29.495 51.11328125 29.75 C54.41945177 31.18163 57.20338521 32.98340566 60.1875 35 C61.23292969 35.70125 62.27835937 36.4025 63.35546875 37.125 C66 39 66 39 68 41 C68.73314089 46.43511176 69.32391852 52.42316174 66.76171875 57.41015625 C63.81208019 60.85750057 60.7791042 63.81170946 56.12109375 64.3046875 C52.57839115 63.95884169 50.97855739 63.12431897 48.0625 61.125 C46.64130859 60.16980469 46.64130859 60.16980469 45.19140625 59.1953125 C44.13824219 58.47085938 43.08507812 57.74640625 42 57 C40.14635152 55.75681638 38.28829928 54.52041675 36.4296875 53.28466797 C35.14533232 52.42962281 33.86276862 51.57188045 32.58203125 50.71142578 C27.75474602 47.47212867 22.8521985 44.3864841 17.87890625 41.375 C16.94884766 40.694375 16.94884766 40.694375 16 40 C16 39.34 16 38.68 16 38 C14.9790625 37.62875 14.9790625 37.62875 13.9375 37.25 C10.43134917 35.75802092 7.28379632 33.93164489 4 32 C3.37351563 32.433125 2.74703125 32.86625 2.1015625 33.3125 C1.28429688 33.869375 0.46703125 34.42625 -0.375 35 C-1.18710937 35.556875 -1.99921875 36.11375 -2.8359375 36.6875 C-5 38 -5 38 -7 38 C-7 38.66 -7 39.32 -7 40 C-9.40921359 41.62629475 -11.81832307 43.1393211 -14.3125 44.625 C-19.31020395 47.66573847 -24.17945865 50.75030156 -28.875 54.25 C-41.14555575 63.32836606 -41.14555575 63.32836606 -47.1875 64.75 C-52.66713802 63.28876319 -57.07696924 58.77141786 -60 54 C-60.50390625 51.16015625 -60.50390625 51.16015625 -60.5625 48.0625 C-60.60503906 47.04285156 -60.64757813 46.02320313 -60.69140625 44.97265625 C-59.73217805 40.84851691 -57.3279164 39.28888575 -54 37 C-53.13314575 36.37677856 -53.13314575 36.37677856 -52.2487793 35.7409668 C-50.36969506 34.40608851 -48.47016317 33.10617295 -46.5625 31.8125 C-45.86294189 31.33474121 -45.16338379 30.85698242 -44.44262695 30.36474609 C-39.28152491 26.84810999 -34.0913922 23.37554527 -28.88183594 19.93115234 C-25.21715954 17.50183585 -21.58690055 15.02902331 -17.9765625 12.51953125 C-17.11973877 11.92575684 -16.26291504 11.33198242 -15.38012695 10.72021484 C-13.69809146 9.5523701 -12.01940216 8.37968759 -10.34448242 7.20166016 C-9.57724854 6.66976074 -8.81001465 6.13786133 -8.01953125 5.58984375 C-7.33995361 5.11409912 -6.66037598 4.63835449 -5.96020508 4.14819336 C-3.96549442 2.9797883 -2.25905032 2.43679809 0 2 C0 1.34 0 0.68 0 0 Z " fill="#E26951" transform="translate(60,0)"/>
</svg>
