<?xml version="1.0" encoding="UTF-8"?>
<svg version="1.1" xmlns="http://www.w3.org/2000/svg" width="128" height="128">
<path d="M0 0 C0.99 0.66 1.98 1.32 3 2 C2.54099175 6.77368582 1.8233567 9.2355244 -1 13 C-2.34865373 16.26806182 -2.34865373 16.26806182 -2 20 C-0.08739202 23.06017276 2.45293271 25.46185413 5 28 C14.94929983 38.42534288 24.26650234 48.4127664 24.3125 63.5 C24.33763672 65.40265625 24.33763672 65.40265625 24.36328125 67.34375 C23.62956198 74.72827943 19.89141958 78.55908465 14.46875 83.171875 C10.88216783 85.8277618 7.21503377 87.57619261 3 89 C2.01257813 89.35449219 1.02515625 89.70898438 0.0078125 90.07421875 C-15.12568322 94.27549411 -33.85776415 92.18045895 -47.5 84.61328125 C-53.03923467 80.89669916 -56.06680635 75.8663873 -59 70 C-60.67124029 57.61762877 -56.05084448 48.46258685 -49.0625 38.625 C-46.29593829 35.15757599 -43.1500581 32.1146717 -39.96875 29.03125 C-36.97025178 25.93756136 -34.47186755 22.52053863 -32 19 C-32.495 18.05125 -32.99 17.1025 -33.5 16.125 C-35 13 -35 13 -35 11 C-35.66 11 -36.32 11 -37 11 C-37.6875 8.1875 -37.6875 8.1875 -38 5 C-36.8671875 3.30859375 -36.8671875 3.30859375 -35 2 C-32.37109375 1.7421875 -32.37109375 1.7421875 -29.4375 1.875 C-25.56956751 2.15261275 -25.56956751 2.15261275 -22 1 C-19.66706666 0.95679753 -17.3329866 0.95977609 -15 1 C-11.17490679 1.27224404 -11.17490679 1.27224404 -8.625 -0.0625 C-5.32300847 -1.24178269 -3.36239959 -0.87714772 0 0 Z M-25 11 C-24.34 13.31 -23.68 15.62 -23 18 C-19.7 18 -16.4 18 -13 18 C-12.01 15.36 -11.02 12.72 -10 10 C-10.9075 10.020625 -11.815 10.04125 -12.75 10.0625 C-16 10 -16 10 -18.0625 9.375 C-20.81014184 8.84319835 -22.5243783 9.83095642 -25 11 Z M-18 40 C-18.20625 40.598125 -18.4125 41.19625 -18.625 41.8125 C-20 44 -20 44 -23 45.4375 C-26.11038574 46.74790312 -26.11038574 46.74790312 -27.5625 49.375 C-28.25187716 52.04470101 -28.25187716 52.04470101 -26.90625 54.51953125 C-24.50694968 57.64157162 -22.68009814 58.20745583 -18.9375 59.3125 C-17.87402344 59.63863281 -16.81054688 59.96476562 -15.71484375 60.30078125 C-13.14444128 61.08313815 -13.14444128 61.08313815 -11 61 C-11 62.32 -11 63.64 -11 65 C-12.41543415 65.19658808 -13.83244031 65.38187546 -15.25 65.5625 C-16.03890625 65.66691406 -16.8278125 65.77132812 -17.640625 65.87890625 C-20.00532874 66.00027349 -21.7511037 65.69633257 -24 65 C-24.33 65.99 -24.66 66.98 -25 68 C-23.7934375 68.6496875 -23.7934375 68.6496875 -22.5625 69.3125 C-20 71 -20 71 -19 74 C-17.01508358 73.73323796 -17.01508358 73.73323796 -15 73 C-14.67 72.01 -14.34 71.02 -14 70 C-13.01 69.54625 -12.02 69.0925 -11 68.625 C-7.85091797 67.31252955 -7.85091797 67.31252955 -6.9375 64.625 C-7.01935191 61.18721963 -7.93129463 59.73672482 -10 57 C-12.84690661 55.54448502 -12.84690661 55.54448502 -16.0625 54.6875 C-17.12597656 54.36136719 -18.18945312 54.03523438 -19.28515625 53.69921875 C-21.85555872 52.91686185 -21.85555872 52.91686185 -24 53 C-23.375 51.0625 -23.375 51.0625 -22 49 C-18.00502289 47.91046079 -14.12273784 47.90183958 -10 48 C-10 47.34 -10 46.68 -10 46 C-12.475 45.505 -12.475 45.505 -15 45 C-15.33 43.35 -15.66 41.7 -16 40 C-16.66 40 -17.32 40 -18 40 Z " fill="#28706E" transform="translate(83,37)"/>
<path d="M0 0 C4.33957482 1.71774836 5.6988441 4.67123274 7.99609375 8.609375 C9.08054451 11.39434583 9.07809068 12.4571875 8 15.1875 C6.68 15.5175 5.36 15.8475 4 16.1875 C4.02320312 17.31929687 4.04640625 18.45109375 4.0703125 19.6171875 C4.08906901 21.09895175 4.10726934 22.58072312 4.125 24.0625 C4.14175781 24.80886719 4.15851563 25.55523438 4.17578125 26.32421875 C4.1933959 28.27944461 4.10320189 30.23492021 4 32.1875 C3.34 32.8475 2.68 33.5075 2 34.1875 C0.02 33.8575 -1.96 33.5275 -4 33.1875 C-4 27.5775 -4 21.9675 -4 16.1875 C-5.65 15.8575 -7.3 15.5275 -9 15.1875 C-9.38900153 9.97302717 -7.68625525 7.20336999 -4.7109375 3.0546875 C-3 1.1875 -3 1.1875 0 0 Z " fill="#276F6D" transform="translate(64,-1.1875)"/>
<path d="M0 0 C5.43643771 0.04578053 10.47983333 0.83588333 15 4 C15.99514201 6.84326289 16 8.98917234 16 12 C18.22068712 14.58618137 18.22068712 14.58618137 21 17.1875 C21.928125 18.08855469 22.85625 18.98960938 23.8125 19.91796875 C24.534375 20.60503906 25.25625 21.29210937 26 22 C25.67 22.99 25.34 23.98 25 25 C22.30859375 25.8125 22.30859375 25.8125 19 26 C16.17228775 23.62244906 14.02611868 20.95646073 11.66015625 18.125 C9.06919869 15.57468359 9.06919869 15.57468359 5.18359375 16.1875 C4.13300781 16.455625 3.08242187 16.72375 2 17 C-0.44149915 11.30316864 -1.43494682 7.19799214 -1 1 C-0.67 0.67 -0.34 0.34 0 0 Z " fill="#286F6D" transform="translate(1,23)"/>
<path d="M0 0 C1 1 1 1 1.25 4 C1.21147976 8.63205912 -0.36745979 12.71458195 -2 17 C-4.66666667 17 -7.33333333 17 -10 17 C-12.56681468 19.26639575 -14.93356492 21.6858173 -17.33203125 24.12890625 C-20 26 -20 26 -23.32421875 25.77734375 C-24.64873047 25.39255859 -24.64873047 25.39255859 -26 25 C-26 21 -26 21 -24.35546875 19.21875 C-23.28232422 18.36796875 -23.28232422 18.36796875 -22.1875 17.5 C-19.32256619 15.20387818 -17.10037063 13.02135334 -15 10 C-15.33 9.67 -15.66 9.34 -16 9 C-16.04063832 7.33382885 -16.042721 5.66611905 -16 4 C-10.58139424 1.10167599 -6.16592852 -0.34255158 0 0 Z " fill="#286F6D" transform="translate(127,23)"/>
<path d="M0 0 C2.9375 0.875 2.9375 0.875 4.375 2.75 C4.9375 4.875 4.9375 4.875 3.9375 7.875 C1.21708849 8.63066986 -0.5643217 9.01338286 -3.3125 8.25 C-5.0625 6.875 -5.0625 6.875 -5.8125 4.25 C-5.895 3.46625 -5.9775 2.6825 -6.0625 1.875 C-3.0625 -0.125 -3.0625 -0.125 0 0 Z " fill="#266B69" transform="translate(78.0625,21.125)"/>
<path d="M0 0 C0.33 2.31 0.66 4.62 1 7 C-2.3125 8.125 -2.3125 8.125 -6 9 C-6.99 8.34 -7.98 7.68 -9 7 C-8.6875 4.625 -8.6875 4.625 -8 2 C-4.77208445 -0.1519437 -3.71599191 -0.20086443 0 0 Z " fill="#276C69" transform="translate(44,24)"/>
<path d="M0 0 C0 2.64 0 5.28 0 8 C-3.375 8.125 -3.375 8.125 -7 8 C-7.66 7.34 -8.32 6.68 -9 6 C-8.75 3.4375 -8.75 3.4375 -8 1 C-5.29120665 -0.35439668 -2.99066732 -0.06501451 0 0 Z " fill="#276B69" transform="translate(56,21)"/>
<path d="M0 0 C5.75 0.875 5.75 0.875 8 2 C8.042721 3.66611905 8.04063832 5.33382885 8 7 C7.67 7.33 7.34 7.66 7 8 C4.30917128 7.82364548 1.67148554 7.38164079 -1 7 C-1.625 5.1875 -1.625 5.1875 -2 3 C-1.34 2.01 -0.68 1.02 0 0 Z " fill="#276C6A" transform="translate(86,25)"/>
<path d="M0 0 C0.33 1.65 0.66 3.3 1 5 C-0.6875 6.5625 -0.6875 6.5625 -3 8 C-5.75 7.6875 -5.75 7.6875 -8 7 C-8.33 5.68 -8.66 4.36 -9 3 C-5.92807025 0.26939578 -4.09590633 -0.34132553 0 0 Z " fill="#276D6B" transform="translate(33,30)"/>
<path d="M0 0 C3.40667322 0.44824648 5.07914607 1.05276405 8 3 C8 3.99 8 4.98 8 6 C5 8 5 8 2.375 7.6875 C0 7 0 7 -1 6 C-1.125 3.5 -1.125 3.5 -1 1 C-0.67 0.67 -0.34 0.34 0 0 Z " fill="#276E6C" transform="translate(97,31)"/>
</svg>
