<?xml version="1.0" encoding="UTF-8"?>
<svg version="1.1" xmlns="http://www.w3.org/2000/svg" width="128" height="128">
<path d="M0 0 C13.480001 10.17668264 22.05008991 24.69579857 25.37890625 41.1875 C25.78212621 44.97093228 25.85705251 48.69731658 25.81640625 52.5 C25.80504639 54.00385254 25.80504639 54.00385254 25.79345703 55.53808594 C25.398291 73.42728092 18.05050301 88.92491915 5.13671875 101.34375 C-7.10371862 111.7782212 -20.50574152 116.57258744 -36.45874023 116.61303711 C-38.65399971 116.62484087 -40.8463558 116.67399567 -43.04101562 116.72460938 C-59.91983362 116.91914385 -74.07298598 110.06885273 -86.42578125 98.6015625 C-97.75830037 86.13982439 -103.52305383 71.58648202 -103.27294922 54.82177734 C-103.24609972 52.68797458 -103.27285666 50.55942717 -103.3046875 48.42578125 C-103.34719359 31.74461067 -96.31771395 17.53661017 -85.03515625 5.3828125 C-61.28634486 -16.21400303 -26.1875057 -18.10879679 0 0 Z " fill="#2B7371" transform="translate(102.62109375,11.8125)"/>
<path d="M0 0 C3.125 0.25 3.125 0.25 5 1.75 C5.37125 2.245 5.7425 2.74 6.125 3.25 C5.01712734 5.5509663 3.87070534 7.62673284 2.4375 9.75 C0.90906257 12.07727497 0.90906257 12.07727497 1.38598633 14.22387695 C2.62369874 17.61726159 5.32762867 19.90145537 7.8125 22.4375 C15.11731126 30.11636257 21.58916576 36.95060965 21.40234375 48.09765625 C20.71497125 53.43205407 18.08578141 57.24453108 14.4375 61.0625 C9.72302598 64.1758319 4.82763998 66.25 -0.875 66.25 C-0.875 66.91 -0.875 67.57 -0.875 68.25 C-6.155 68.25 -11.435 68.25 -16.875 68.25 C-16.875 67.59 -16.875 66.93 -16.875 66.25 C-17.7103125 66.12044922 -17.7103125 66.12044922 -18.5625 65.98828125 C-26.27216077 64.56876601 -32.77432362 61.37081166 -37.875 55.25 C-39.8376233 49.36213011 -39.65014944 43.36145674 -37.25 37.625 C-33.26899427 29.69082775 -27.21416222 22.41783351 -20.875 16.25 C-20.215 16.25 -19.555 16.25 -18.875 16.25 C-19.29072266 15.45335937 -19.29072266 15.45335937 -19.71484375 14.640625 C-20.07707031 13.93421875 -20.43929687 13.2278125 -20.8125 12.5 C-21.17214844 11.80390625 -21.53179687 11.1078125 -21.90234375 10.390625 C-22.84970577 8.30566763 -23.57420792 6.52265127 -23.875 4.25 C-21.05654912 1.43154912 -18.93051969 1.84563208 -15 1.625 C-13.76507813 1.55023438 -12.53015625 1.47546875 -11.2578125 1.3984375 C-8.7987439 1.2905338 -6.33643486 1.25 -3.875 1.25 C-2.875 0.25 -2.875 0.25 0 0 Z " fill="#F8FAFA" transform="translate(74.875,43.75)"/>
<path d="M0 0 C1.32 0 2.64 0 4 0 C4.33 0.99 4.66 1.98 5 3 C5.66 3.33 6.32 3.66 7 4 C7 4.99 7 5.98 7 7 C4.36 7 1.72 7 -1 7 C-1 7.99 -1 8.98 -1 10 C-0.45730469 10.19335938 0.08539063 10.38671875 0.64453125 10.5859375 C1.35996094 10.84632812 2.07539062 11.10671875 2.8125 11.375 C3.52019531 11.63023438 4.22789063 11.88546875 4.95703125 12.1484375 C7 13 7 13 10 15 C9.25 19.75 9.25 19.75 7 22 C6.01 22 5.02 22 4 22 C4 22.99 4 23.98 4 25 C0 25 0 25 -2.25 23.125 C-4 21 -4 21 -4 19 C-3.04287109 18.92652344 -3.04287109 18.92652344 -2.06640625 18.8515625 C-1.24011719 18.77679688 -0.41382813 18.70203125 0.4375 18.625 C1.26121094 18.55539063 2.08492187 18.48578125 2.93359375 18.4140625 C3.61550781 18.27742188 4.29742187 18.14078125 5 18 C5.33 17.34 5.66 16.68 6 16 C5.07767578 15.83564453 5.07767578 15.83564453 4.13671875 15.66796875 C3.32847656 15.50941406 2.52023438 15.35085937 1.6875 15.1875 C0.48673828 14.96126953 0.48673828 14.96126953 -0.73828125 14.73046875 C-3.27573287 13.91094638 -4.37347026 13.09125253 -6 11 C-6.44413964 8.03906909 -6.46030193 6.63565504 -4.6875 4.1875 C-3 3 -3 3 0 3 C0 2.01 0 1.02 0 0 Z " fill="#438381" transform="translate(64,73)"/>
<path d="M0 0 C0.99 0 1.98 0 3 0 C3.86646667 1.43011973 4.71781829 2.86940619 5.5625 4.3125 C6.03816406 5.11300781 6.51382813 5.91351563 7.00390625 6.73828125 C8 9 8 9 7 12 C6.01 12 5.02 12 4 12 C4 15.96 4 19.92 4 24 C2.68 24.33 1.36 24.66 0 25 C-1 24 -1 24 -1.09765625 21.27734375 C-1.08605469 20.17519531 -1.07445312 19.07304688 -1.0625 17.9375 C-1.05347656 16.83277344 -1.04445312 15.72804688 -1.03515625 14.58984375 C-1.02355469 13.73519531 -1.01195312 12.88054688 -1 12 C-2.32 11.67 -3.64 11.34 -5 11 C-4.46972205 6.4926374 -2.80388725 3.5460927 0 0 Z " fill="#ECF2F2" transform="translate(63,16)"/>
<path d="M0 0 C0 1.32 0 2.64 0 4 C-0.66 4 -1.32 4 -2 4 C-2.66 6.31 -3.32 8.62 -4 11 C-5.0209375 10.7834375 -5.0209375 10.7834375 -6.0625 10.5625 C-10.18301671 11.17619398 -11.63660719 13.46554155 -14.25390625 16.56640625 C-14.83011719 17.03949219 -15.40632813 17.51257813 -16 18 C-18.21484375 17.71484375 -18.21484375 17.71484375 -20 17 C-19.52794881 12.75153925 -17.11122478 10.73180712 -14 8 C-13.34 8 -12.68 8 -12 8 C-12.33 6.02 -12.66 4.04 -13 2 C-8.46298506 0.54815522 -4.81938524 -0.23509196 0 0 Z " fill="#EDF3F3" transform="translate(112,35)"/>
<path d="M0 0 C1.6260287 0.06000106 3.25101549 0.1487885 4.875 0.25 C6.23238281 0.31960937 6.23238281 0.31960937 7.6171875 0.390625 C10 1 10 1 11.3203125 2.859375 C12 5 12 5 12 8 C13.45223158 9.62079418 15.04508647 10.97663756 16.6875 12.40234375 C18 14 18 14 18 18 C14.65342119 17.43266153 13.28491739 16.51841824 11.125 13.9375 C8.7180663 11.3647826 8.33220973 11.03691219 4.625 10.625 C3.75875 10.74875 2.8925 10.8725 2 11 C0.56331706 7.1389146 -0.11185208 4.103573 0 0 Z " fill="#F3F7F7" transform="translate(18,35)"/>
<path d="M0 0 C1.8871875 0.0309375 1.8871875 0.0309375 3.8125 0.0625 C3.30646008 2.23124252 2.81266187 4.06217627 1.8125 6.0625 C-0.8275 6.0625 -3.4675 6.0625 -6.1875 6.0625 C-6.5175 4.4125 -6.8475 2.7625 -7.1875 1.0625 C-4.43671116 0.14557039 -2.82801087 -0.04636083 0 0 Z " fill="#41817F" transform="translate(67.1875,50.9375)"/>
<path d="M0 0 C1.4540625 0.0309375 1.4540625 0.0309375 2.9375 0.0625 C2.9375 1.3825 2.9375 2.7025 2.9375 4.0625 C0.9575 4.3925 -1.0225 4.7225 -3.0625 5.0625 C-3.625 3.125 -3.625 3.125 -4.0625 1.0625 C-3.0625 0.0625 -3.0625 0.0625 0 0 Z " fill="#CEDEDE" transform="translate(48.0625,35.9375)"/>
<path d="M0 0 C2.31 0 4.62 0 7 0 C7 1.65 7 3.3 7 5 C3 5 3 5 1.25 3.625 C0 2 0 2 0 0 Z " fill="#3F807E" transform="translate(61,93)"/>
<path d="M0 0 C1.65 0 3.3 0 5 0 C4.67 1.65 4.34 3.3 4 5 C2.35 4.67 0.7 4.34 -1 4 C-0.67 2.68 -0.34 1.36 0 0 Z " fill="#D6E3E3" transform="translate(54,33)"/>
<path d="M0 0 C1.2065625 0.0309375 1.2065625 0.0309375 2.4375 0.0625 C2.1075 1.3825 1.7775 2.7025 1.4375 4.0625 C0.1175 4.3925 -1.2025 4.7225 -2.5625 5.0625 C-3.125 3.125 -3.125 3.125 -3.5625 1.0625 C-2.5625 0.0625 -2.5625 0.0625 0 0 Z " fill="#E1EBEA" transform="translate(39.5625,39.9375)"/>
<path d="M0 0 C1.98 0.495 1.98 0.495 4 1 C4 2.32 4 3.64 4 5 C2.35 4.67 0.7 4.34 -1 4 C-0.67 2.68 -0.34 1.36 0 0 Z " fill="#E4EDEC" transform="translate(89,40)"/>
<path d="M0 0 C1.98 0 3.96 0 6 0 C6 1.32 6 2.64 6 4 C4.35 4 2.7 4 1 4 C0.67 2.68 0.34 1.36 0 0 Z " fill="#E9F0F0" transform="translate(71,34)"/>
<path d="M0 0 C1.65 0 3.3 0 5 0 C5.33 1.32 5.66 2.64 6 4 C4.35 4 2.7 4 1 4 C0.67 2.68 0.34 1.36 0 0 Z " fill="#E9F0F0" transform="translate(80,37)"/>
<path d="M0 0 C1.32 0 2.64 0 4 0 C4 0.99 4 1.98 4 3 C3.01 3.33 2.02 3.66 1 4 C0.34 4.66 -0.32 5.32 -1 6 C-1.99 5.34 -2.98 4.68 -4 4 C-2.68 3.67 -1.36 3.34 0 3 C0 2.01 0 1.02 0 0 Z " fill="#4E8988" transform="translate(64,73)"/>
</svg>
