<?xml version="1.0" encoding="UTF-8"?>
<svg version="1.1" xmlns="http://www.w3.org/2000/svg" width="128" height="128">
<path d="M0 0 C13.480001 10.17668264 22.05008991 24.69579857 25.37890625 41.1875 C25.78212621 44.97093228 25.85705251 48.69731658 25.81640625 52.5 C25.80504639 54.00385254 25.80504639 54.00385254 25.79345703 55.53808594 C25.398291 73.42728092 18.05050301 88.92491915 5.13671875 101.34375 C-7.10371862 111.7782212 -20.50574152 116.57258744 -36.45874023 116.61303711 C-38.65399971 116.62484087 -40.8463558 116.67399567 -43.04101562 116.72460938 C-59.91983362 116.91914385 -74.07298598 110.06885273 -86.42578125 98.6015625 C-97.75830037 86.13982439 -103.52305383 71.58648202 -103.27294922 54.82177734 C-103.24609972 52.68797458 -103.27285666 50.55942717 -103.3046875 48.42578125 C-103.34719359 31.74461067 -96.31771395 17.53661017 -85.03515625 5.3828125 C-61.28634486 -16.21400303 -26.1875057 -18.10879679 0 0 Z " fill="#78B8B4" transform="translate(102.62109375,11.8125)"/>
<path d="M0 0 C3.41942763 1.32590051 4.52024805 2.15472276 6.3125 5.3125 C7 8 7 8 7 14 C11.95 14 16.9 14 22 14 C23.54360729 17.85901822 24.35205702 20.39788089 24.89453125 24.3671875 C25.0430957 25.4072998 25.19166016 26.44741211 25.34472656 27.51904297 C25.4990918 28.62650879 25.65345703 29.73397461 25.8125 30.875 C27.27702744 40.95464565 29.12615426 50.86632907 31.42504883 60.78857422 C31.73285278 62.12686279 31.73285278 62.12686279 32.046875 63.4921875 C32.23088867 64.26933105 32.41490234 65.04647461 32.60449219 65.84716797 C33 68 33 68 33 72 C19.14 72 5.28 72 -9 72 C-9.4375 53.0625 -9.4375 53.0625 -9.56811523 47.07836914 C-9.60622236 45.52228868 -9.64469013 43.966217 -9.68359375 42.41015625 C-9.70006958 41.59478394 -9.71654541 40.77941162 -9.73352051 39.93933105 C-9.47558282 36.16034895 -9.47558282 36.16034895 -11 33 C-12.51165654 32.60851239 -14.03469632 32.26027543 -15.5625 31.9375 C-16.80193359 31.67259766 -16.80193359 31.67259766 -18.06640625 31.40234375 C-18.70449219 31.26957031 -19.34257813 31.13679688 -20 31 C-20.4640625 29.2984375 -20.4640625 29.2984375 -20.9375 27.5625 C-21.62924531 24.21224901 -21.62924531 24.21224901 -23 23 C-24.84891946 22.76636119 -26.70488031 22.58696365 -28.5625 22.4375 C-29.57441406 22.35371094 -30.58632813 22.26992188 -31.62890625 22.18359375 C-32.80259766 22.09271484 -32.80259766 22.09271484 -34 22 C-34.1875 19.125 -34.1875 19.125 -34 16 C-30.2632157 13.50881047 -28.25548181 13.7934774 -23.8125 13.875 C-22.54019531 13.89304687 -21.26789062 13.91109375 -19.95703125 13.9296875 C-18.49330078 13.96449219 -18.49330078 13.96449219 -17 14 C-16.97873047 13.11248047 -16.97873047 13.11248047 -16.95703125 12.20703125 C-16.70965005 8.10852654 -16.29964197 5.48941522 -14.125 1.9375 C-9.48871864 -0.93699444 -5.31470019 -0.72727476 0 0 Z " fill="#FCFDFD" transform="translate(78,24)"/>
<path d="M0 0 C3.5625 0.25 3.5625 0.25 6.5625 2.25 C9.52067184 1.94814573 11.89687658 1.58281171 14.5625 0.25 C17.5625 0.0625 17.5625 0.0625 20.5625 0.25 C22.5625 2.25 22.5625 2.25 22.6875 5.375 C22.64625 6.32375 22.605 7.2725 22.5625 8.25 C23.27277344 8.38277344 23.98304687 8.51554687 24.71484375 8.65234375 C25.63394531 8.82894531 26.55304687 9.00554688 27.5 9.1875 C28.41652344 9.36152344 29.33304688 9.53554688 30.27734375 9.71484375 C32.5625 10.25 32.5625 10.25 33.5625 11.25 C33.57946609 13.99069083 33.53351972 16.7037051 33.44140625 19.44140625 C33.42074097 20.16775269 33.40007568 20.89409912 33.37878418 21.64245605 C33.29978619 24.36597213 33.21184633 27.08922289 33.125 29.8125 C32.939375 35.896875 32.75375 41.98125 32.5625 48.25 C17.0525 48.25 1.5425 48.25 -14.4375 48.25 C-14.4375 39.34 -14.4375 30.43 -14.4375 21.25 C-15.0975 21.25 -15.7575 21.25 -16.4375 21.25 C-16.51840971 19.62581255 -16.57664995 18.00048255 -16.625 16.375 C-16.65980469 15.47007813 -16.69460937 14.56515625 -16.73046875 13.6328125 C-16.63378906 12.84648438 -16.53710938 12.06015625 -16.4375 11.25 C-13.23369983 9.11413322 -12.41810033 9.01867825 -8.75 9.125 C-7.53763672 9.15207031 -7.53763672 9.15207031 -6.30078125 9.1796875 C-5.37845703 9.21449219 -5.37845703 9.21449219 -4.4375 9.25 C-4.64375 8.13625 -4.85 7.0225 -5.0625 5.875 C-5.248125 4.080625 -5.248125 4.080625 -5.4375 2.25 C-3.4375 0.25 -3.4375 0.25 0 0 Z " fill="#FAFCFC" transform="translate(33.4375,47.75)"/>
<path d="M0 0 C11.88 0 23.76 0 36 0 C36 7.59 36 15.18 36 23 C24.12 23 12.24 23 0 23 C0 15.41 0 7.82 0 0 Z " fill="#82BDB9" transform="translate(24,69)"/>
<path d="M0 0 C10.89 0 21.78 0 33 0 C33 3.96 33 7.92 33 12 C22.11 12 11.22 12 0 12 C0 8.04 0 4.08 0 0 Z " fill="#F8FBFB" transform="translate(26,77)"/>
<path d="M0 0 C1.9375 1.625 1.9375 1.625 3 4 C3 5.98 3 7.96 3 10 C-1.62 10 -6.24 10 -11 10 C-11 3 -11 3 -9.4375 1.0625 C-6.06610977 -0.40708036 -3.63537875 -0.46268457 0 0 Z " fill="#7BB9B6" transform="translate(77,28)"/>
<path d="M0 0 C0.33 0 0.66 0 1 0 C1 1.98 1 3.96 1 6 C1.62648437 6.04898438 2.25296875 6.09796875 2.8984375 6.1484375 C3.71570312 6.22320312 4.53296875 6.29796875 5.375 6.375 C6.59316406 6.47941406 6.59316406 6.47941406 7.8359375 6.5859375 C10 7 10 7 12 9 C12.17532289 11.86888581 12.23137614 14.63992645 12.1953125 17.5078125 C12.1924826 18.34843231 12.18965271 19.18905212 12.18673706 20.05514526 C12.1755243 22.74524046 12.15041803 25.4350051 12.125 28.125 C12.1149716 29.94660978 12.10584551 31.76822477 12.09765625 33.58984375 C12.07558142 38.06002358 12.04104434 42.52995571 12 47 C11.67 47 11.34 47 11 47 C10.97494385 46.23445801 10.9498877 45.46891602 10.92407227 44.68017578 C10.80696546 41.16166069 10.68476595 37.64333945 10.5625 34.125 C10.52318359 32.92101562 10.48386719 31.71703125 10.44335938 30.4765625 C10.32929181 20.17442158 10.32929181 20.17442158 9 10 C6.70370006 8.85185003 4.92301914 8.69230191 2.375 8.4375 C1.55773438 8.35371094 0.74046875 8.26992188 -0.1015625 8.18359375 C-0.72804687 8.12300781 -1.35453125 8.06242187 -2 8 C-1.34 5.36 -0.68 2.72 0 0 Z " fill="#9ECCC9" transform="translate(57,49)"/>
<path d="M0 0 C-0.66 0.66 -1.32 1.32 -2 2 C-1.59070014 4.05396726 -1.59070014 4.05396726 -1 6 C-2 7 -2 7 -4.06640625 7.09765625 C-4.89011719 7.08605469 -5.71382812 7.07445312 -6.5625 7.0625 C-7.38878906 7.05347656 -8.21507812 7.04445313 -9.06640625 7.03515625 C-9.70449219 7.02355469 -10.34257813 7.01195312 -11 7 C-11 5.35 -11 3.7 -11 2 C-7.17010894 0.19769832 -4.21878192 -0.19622241 0 0 Z " fill="#F2F8F8" transform="translate(54,48)"/>
<path d="M0 0 C2.97 0.99 5.94 1.98 9 3 C9 3.33 9 3.66 9 4 C6.03 4 3.06 4 0 4 C0 2.68 0 1.36 0 0 Z " fill="#98C9C6" transform="translate(32,51)"/>
<path d="M0 0 C-0.33 0.99 -0.66 1.98 -1 3 C-3.64 3 -6.28 3 -9 3 C-6.07868595 -0.19953443 -4.37453972 -1.45817991 0 0 Z " fill="#93C6C3" transform="translate(53,52)"/>
<path d="M0 0 C2.875 -0.125 2.875 -0.125 6 0 C6.66 0.66 7.32 1.32 8 2 C7.67 2.99 7.34 3.98 7 5 C6.34 4.34 5.68 3.68 5 3 C2.42938689 2.35232207 2.42938689 2.35232207 0 2 C0 1.34 0 0.68 0 0 Z " fill="#84BEBA" transform="translate(49,46)"/>
</svg>
