<?xml version="1.0" encoding="UTF-8"?>
<svg version="1.1" xmlns="http://www.w3.org/2000/svg" width="128" height="128">
<path d="M0 0 C4.4849585 2.5865195 7.17287451 5.0061781 8.73828125 10.09375 C8.80519361 11.66016827 8.82358388 13.22919407 8.80078125 14.796875 C8.79175781 15.60286133 8.78273437 16.40884766 8.7734375 17.23925781 C8.76183594 17.85124023 8.75023437 18.46322266 8.73828125 19.09375 C9.63135986 19.07803955 9.63135986 19.07803955 10.54248047 19.06201172 C13.23270468 19.02051051 15.92286162 18.99444296 18.61328125 18.96875 C19.55042969 18.95199219 20.48757812 18.93523438 21.453125 18.91796875 C22.79697266 18.90830078 22.79697266 18.90830078 24.16796875 18.8984375 C24.99538574 18.88796387 25.82280273 18.87749023 26.67529297 18.86669922 C28.73828125 19.09375 28.73828125 19.09375 30.73828125 21.09375 C31.16240562 23.20029613 31.47960139 25.32870864 31.74609375 27.4609375 C31.92560122 28.81877342 32.10581087 30.17651663 32.28662109 31.53417969 C32.38013855 32.25617554 32.47365601 32.97817139 32.57000732 33.7220459 C34.59085314 49.20328095 37.56430048 64.31599886 41.23486328 79.48779297 C41.49478058 80.58753952 41.49478058 80.58753952 41.75994873 81.70950317 C42.22927205 83.69112539 42.71251296 85.66943692 43.19677734 87.64746094 C43.73828125 91.09375 43.73828125 91.09375 42.73828125 97.09375 C24.25828125 97.09375 5.77828125 97.09375 -13.26171875 97.09375 C-13.07421875 75.09375 -13.07421875 75.09375 -12.99145508 68.1953125 C-12.98268464 66.36979705 -12.97504202 64.54427568 -12.96875 62.71875 C-12.9534021 61.78804687 -12.9380542 60.85734375 -12.92224121 59.8984375 C-12.91987671 53.94620975 -13.65503535 49.48295224 -16.26171875 44.09375 C-18.92543481 42.71539219 -18.92543481 42.71539219 -21.94921875 42.59375 C-22.94308594 42.4803125 -23.93695313 42.366875 -24.9609375 42.25 C-25.72019531 42.1984375 -26.47945312 42.146875 -27.26171875 42.09375 C-27.39192708 40.140625 -27.52213542 38.1875 -27.65234375 36.234375 C-28.51980917 33.18712467 -29.73351233 31.98990482 -32.26171875 30.09375 C-35.52425295 29.3977272 -35.52425295 29.3977272 -39.01171875 29.34375 C-40.1821875 29.28703125 -41.35265625 29.2303125 -42.55859375 29.171875 C-43.450625 29.14609375 -44.34265625 29.1203125 -45.26171875 29.09375 C-45.5546875 23.0390625 -45.5546875 23.0390625 -45.26171875 21.09375 C-42.1085709 18.99165143 -41.40068794 18.8502739 -37.8125 18.8984375 C-36.54116211 18.90810547 -36.54116211 18.90810547 -35.24414062 18.91796875 C-33.9225293 18.94310547 -33.9225293 18.94310547 -32.57421875 18.96875 C-31.23520508 18.98228516 -31.23520508 18.98228516 -29.86914062 18.99609375 C-27.66639561 19.01965252 -25.46419287 19.05254671 -23.26171875 19.09375 C-23.28492187 18.01351562 -23.308125 16.93328125 -23.33203125 15.8203125 C-23.24078076 10.98403637 -22.2285085 7.17876209 -18.83203125 3.578125 C-13.36847364 -1.15152189 -6.84322764 -2.74201867 0 0 Z M-16.26171875 10.09375 C-16.59171875 13.06375 -16.92171875 16.03375 -17.26171875 19.09375 C-10.66171875 19.09375 -4.06171875 19.09375 2.73828125 19.09375 C2.98517177 12.19713139 2.98517177 12.19713139 -0.26171875 7.09375 C-6.24409392 2.76168522 -11.72570157 4.92480019 -16.26171875 10.09375 Z " fill="#77B7B3" transform="translate(83.26171875,15.90625)"/>
<path d="M0 0 C2.9719465 0.49815484 5.37017481 2.00344678 8.05078125 3.34375 C11.1088959 3.16026312 13.25770902 2.7931576 15.92578125 1.28125 C19.44391779 -0.27086906 22.21860242 -0.02121941 26.05078125 0.34375 C28.11328125 1.90625 28.11328125 1.90625 29.05078125 4.34375 C28.73828125 8.09375 28.73828125 8.09375 28.05078125 11.34375 C28.7984375 11.38113281 29.54609375 11.41851562 30.31640625 11.45703125 C31.79367188 11.55564453 31.79367188 11.55564453 33.30078125 11.65625 C34.2753125 11.71425781 35.24984375 11.77226563 36.25390625 11.83203125 C39.35815288 12.39998699 40.79513545 13.1657067 43.05078125 15.34375 C44.05574977 18.35865557 44.15413428 20.38556692 44.11328125 23.53125 C44.10425781 24.43230469 44.09523438 25.33335938 44.0859375 26.26171875 C44.07433594 26.94878906 44.06273438 27.63585937 44.05078125 28.34375 C43.06078125 28.34375 42.07078125 28.34375 41.05078125 28.34375 C41.05078125 40.55375 41.05078125 52.76375 41.05078125 65.34375 C20.59078125 65.34375 0.13078125 65.34375 -20.94921875 65.34375 C-20.94921875 53.13375 -20.94921875 40.92375 -20.94921875 28.34375 C-21.93921875 28.34375 -22.92921875 28.34375 -23.94921875 28.34375 C-24.71241722 18.65960943 -24.71241722 18.65960943 -22.13671875 14.21875 C-17.5625014 11.52803391 -13.17935848 11.44450576 -7.94921875 11.34375 C-8.28953125 9.735 -8.28953125 9.735 -8.63671875 8.09375 C-8.94921875 4.34375 -8.94921875 4.34375 -8.01171875 1.90625 C-5.38520245 -0.08353508 -3.24146977 -0.14222171 0 0 Z M-2.94921875 4.34375 C-3.93921875 5.82875 -3.93921875 5.82875 -4.94921875 7.34375 C-3.11184048 9.61591848 -3.11184048 9.61591848 -0.34765625 9.5390625 C0.65007813 9.51585937 1.6478125 9.49265625 2.67578125 9.46875 C3.67867187 9.45070313 4.6815625 9.43265625 5.71484375 9.4140625 C6.87113281 9.37925781 6.87113281 9.37925781 8.05078125 9.34375 C4.54858665 6.51565038 1.4275679 5.43794666 -2.94921875 4.34375 Z M16.36328125 6.28125 C15.55503906 6.66152344 14.74679688 7.04179688 13.9140625 7.43359375 C12.99173828 7.88412109 12.99173828 7.88412109 12.05078125 8.34375 C12.05078125 8.67375 12.05078125 9.00375 12.05078125 9.34375 C15.68078125 9.34375 19.31078125 9.34375 23.05078125 9.34375 C23.38078125 8.02375 23.71078125 6.70375 24.05078125 5.34375 C20.40917317 4.12988064 19.71912656 4.6762805 16.36328125 6.28125 Z M-13.94921875 28.34375 C-13.94921875 38.24375 -13.94921875 48.14375 -13.94921875 58.34375 C1.89078125 58.34375 17.73078125 58.34375 34.05078125 58.34375 C34.05078125 48.44375 34.05078125 38.54375 34.05078125 28.34375 C18.21078125 28.34375 2.37078125 28.34375 -13.94921875 28.34375 Z " fill="#78B8B4" transform="translate(24.94921875,47.65625)"/>
<path d="M0 0 C14.19 0 28.38 0 43 0 C43 5.28 43 10.56 43 16 C28.81 16 14.62 16 0 16 C0 10.72 0 5.44 0 0 Z " fill="#78B8B4" transform="translate(14,87)"/>
</svg>
