<?xml version="1.0" encoding="UTF-8"?>
<svg version="1.1" xmlns="http://www.w3.org/2000/svg" width="128" height="128">
<path d="M0 0 C13.480001 10.17668264 22.05008991 24.69579857 25.37890625 41.1875 C25.78212621 44.97093228 25.85705251 48.69731658 25.81640625 52.5 C25.80504639 54.00385254 25.80504639 54.00385254 25.79345703 55.53808594 C25.398291 73.42728092 18.05050301 88.92491915 5.13671875 101.34375 C-7.10371862 111.7782212 -20.50574152 116.57258744 -36.45874023 116.61303711 C-38.65399971 116.62484087 -40.8463558 116.67399567 -43.04101562 116.72460938 C-59.91983362 116.91914385 -74.07298598 110.06885273 -86.42578125 98.6015625 C-97.75830037 86.13982439 -103.52305383 71.58648202 -103.27294922 54.82177734 C-103.24609972 52.68797458 -103.27285666 50.55942717 -103.3046875 48.42578125 C-103.34719359 31.74461067 -96.31771395 17.53661017 -85.03515625 5.3828125 C-61.28634486 -16.21400303 -26.1875057 -18.10879679 0 0 Z " fill="#EDB86F" transform="translate(102.62109375,11.8125)"/>
<path d="M0 0 C2.9375991 0.03215816 5.86969837 0.00023478 8.80712891 -0.03808594 C25.69874723 -0.07621763 25.69874723 -0.07621763 31.93798828 5.10546875 C34.8647868 8.36442663 36.80680479 11.21634491 38.13134766 15.40722656 C38.38271484 16.18324219 38.63408203 16.95925781 38.89306641 17.75878906 C39.44384766 19.78222656 39.44384766 19.78222656 39.44384766 21.78222656 C40.83410156 21.76482422 40.83410156 21.76482422 42.25244141 21.74707031 C43.44998047 21.73804687 44.64751953 21.72902344 45.88134766 21.71972656 C47.07630859 21.708125 48.27126953 21.69652344 49.50244141 21.68457031 C52.44384766 21.78222656 52.44384766 21.78222656 53.44384766 22.78222656 C53.48448598 24.44839771 53.48656866 26.11610751 53.44384766 27.78222656 C51.79384766 28.44222656 50.14384766 29.10222656 48.44384766 29.78222656 C49.6678125 31.11833984 49.6678125 31.11833984 50.91650391 32.48144531 C54.67449348 37.74899795 54.06349663 43.36237439 53.88134766 49.59472656 C53.87264648 51.31079102 53.87264648 51.31079102 53.86376953 53.06152344 C53.73920799 61.48686623 53.73920799 61.48686623 51.44384766 63.78222656 C51.1310561 66.01620036 51.1310561 66.01620036 51.06884766 68.53222656 C50.67548147 73.47433627 49.63301007 76.01321644 46.44384766 79.78222656 C42.92474904 81.54177587 38.9463991 81.09413031 35.06884766 81.15722656 C33.77333984 81.21330078 33.77333984 81.21330078 32.45166016 81.27050781 C26.05481205 81.35935293 26.05481205 81.35935293 22.90478516 78.38378906 C20.37761342 73.88353138 20.44384766 73.71443711 20.44384766 67.78222656 C8.89384766 67.78222656 -2.65615234 67.78222656 -14.55615234 67.78222656 C-14.55615234 70.09222656 -14.55615234 72.40222656 -14.55615234 74.78222656 C-16.9500655 79.02664928 -16.9500655 79.02664928 -19.55615234 80.78222656 C-22.73204958 81.6614214 -25.71464429 81.66792998 -28.99365234 81.59472656 C-30.2437207 81.64209961 -30.2437207 81.64209961 -31.51904297 81.69042969 C-35.07190672 81.67076957 -37.56682714 81.5241254 -40.46166992 79.35327148 C-43.55700048 75.97801217 -45.28844457 73.15823547 -45.36865234 68.46972656 C-45.40763671 64.98942252 -45.40763671 64.98942252 -46.55615234 61.78222656 C-46.82733459 57.51685849 -46.78780341 53.24273462 -46.80615234 48.96972656 C-46.82677734 47.78056641 -46.84740234 46.59140625 -46.86865234 45.36621094 C-46.87638672 43.6443457 -46.87638672 43.6443457 -46.88427734 41.88769531 C-46.89362305 40.83735107 -46.90296875 39.78700684 -46.91259766 38.70483398 C-46.50456016 35.359206 -45.58178798 33.45666972 -43.55615234 30.78222656 C-42.89615234 30.78222656 -42.23615234 30.78222656 -41.55615234 30.78222656 C-41.55615234 30.12222656 -41.55615234 29.46222656 -41.55615234 28.78222656 C-43.20615234 28.78222656 -44.85615234 28.78222656 -46.55615234 28.78222656 C-46.55615234 26.47222656 -46.55615234 24.16222656 -46.55615234 21.78222656 C-45.77111328 21.87246094 -44.98607422 21.96269531 -44.17724609 22.05566406 C-40.55461688 22.1712326 -37.97744091 22.02750666 -34.55615234 20.78222656 C-32.19902636 17.34588006 -30.94931514 14.32005892 -29.54443359 10.39550781 C-27.70281751 6.51825749 -25.46385255 4.14255364 -21.78735352 1.91381836 C-14.81593932 -0.52762515 -7.30831892 -0.09534184 0 0 Z " fill="#FEFDFB" transform="translate(60.55615234375,23.2177734375)"/>
<path d="M0 0 C1.23746223 -0.0099852 1.23746223 -0.0099852 2.49992371 -0.02017212 C4.24577608 -0.03029575 5.99166713 -0.03498923 7.73754883 -0.03466797 C10.39795473 -0.03902969 13.05668579 -0.0753184 15.71679688 -0.11328125 C17.41535893 -0.11915194 19.11392884 -0.12311964 20.8125 -0.125 C21.99873711 -0.14655655 21.99873711 -0.14655655 23.2089386 -0.16854858 C28.46063446 -0.1254993 31.43691044 0.86472758 35.60546875 4.3359375 C37.28515625 6.84375 37.28515625 6.84375 38.48046875 9.4609375 C38.89039063 10.32976563 39.3003125 11.19859375 39.72265625 12.09375 C40.60546875 14.3359375 40.60546875 14.3359375 40.60546875 16.3359375 C21.13546875 16.3359375 1.66546875 16.3359375 -18.39453125 16.3359375 C-16.11760817 9.50516827 -16.11760817 9.50516827 -13.95703125 6.0859375 C-13.54582031 5.42078125 -13.13460937 4.755625 -12.7109375 4.0703125 C-9.28098933 -0.44866966 -5.16033903 0.01441226 0 0 Z " fill="#EDB86F" transform="translate(52.39453125,31.6640625)"/>
<path d="M0 0 C1.19786133 -0.04350586 1.19786133 -0.04350586 2.41992188 -0.08789062 C6.40144098 -0.1307736 8.52002238 -0.020384 11.984375 2.10546875 C14.86547335 5.16528185 18.0625 8.9257809 18.0625 13.3125 C5.5225 13.3125 -7.0175 13.3125 -19.9375 13.3125 C-17.96085208 7.38255623 -17.05486557 5.52789808 -12.9375 1.3125 C-8.74358909 -0.125612 -4.38663204 0.05285099 0 0 Z " fill="#EDBA72" transform="translate(64.9375,69.6875)"/>
<path d="M0 0 C2.45840605 -0.02691685 4.91651882 -0.04679802 7.375 -0.0625 C8.07367188 -0.07087891 8.77234375 -0.07925781 9.4921875 -0.08789062 C14.7734375 -0.11328125 14.7734375 -0.11328125 17 1 C16.125 4.875 16.125 4.875 15 6 C12.64686445 6.07271741 10.29166332 6.08370868 7.9375 6.0625 C6.64714844 6.05347656 5.35679688 6.04445313 4.02734375 6.03515625 C3.02832031 6.02355469 2.02929688 6.01195313 1 6 C-0.0625 4.125 -0.0625 4.125 -1 2 C-0.67 1.34 -0.34 0.68 0 0 Z " fill="#EDBC77" transform="translate(25,67)"/>
<path d="M0 0 C1.39456452 0.00667256 2.78911118 0.01863093 4.18359375 0.03515625 C4.89451172 0.03966797 5.60542969 0.04417969 6.33789062 0.04882812 C8.09899388 0.06064761 9.86005411 0.07858362 11.62109375 0.09765625 C12.24609375 1.97265625 12.24609375 1.97265625 12.62109375 4.09765625 C10.62109375 6.09765625 10.62109375 6.09765625 7.36328125 6.29296875 C6.08710937 6.26976563 4.8109375 6.2465625 3.49609375 6.22265625 C1.57410156 6.19558594 1.57410156 6.19558594 -0.38671875 6.16796875 C-1.86785156 6.13316406 -1.86785156 6.13316406 -3.37890625 6.09765625 C-3.76109392 4.44150968 -4.09285727 2.77308601 -4.37890625 1.09765625 C-3.37890625 0.09765625 -3.37890625 0.09765625 0 0 Z " fill="#EDBB75" transform="translate(90.37890625,66.90234375)"/>
</svg>
