<?xml version="1.0" encoding="UTF-8"?>
<svg version="1.1" xmlns="http://www.w3.org/2000/svg" width="128" height="128">
<path d="M0 0 C1.1319278 -0.01921509 2.26385559 -0.03843018 3.43008423 -0.05822754 C4.65504608 -0.06672729 5.88000793 -0.07522705 7.14208984 -0.08398438 C8.40387054 -0.09538452 9.66565125 -0.10678467 10.96566772 -0.11853027 C13.64066989 -0.1374432 16.31522279 -0.15122839 18.99023438 -0.15820312 C22.39669674 -0.16912581 25.80154096 -0.21707662 29.20749855 -0.27414703 C32.47723737 -0.32067863 35.7470665 -0.32431936 39.01708984 -0.33398438 C40.83631454 -0.37102478 40.83631454 -0.37102478 42.69229126 -0.40881348 C50.56027466 -0.3677781 55.56314247 1.01055453 61.47802734 6.32226562 C66.39560665 12.03181463 68.72455159 19.09302347 70.47802734 26.32226562 C71.53763672 26.31066406 72.59724609 26.2990625 73.68896484 26.28710938 C75.07698392 26.27773087 76.46500489 26.26863073 77.85302734 26.25976562 C78.55169922 26.25138672 79.25037109 26.24300781 79.97021484 26.234375 C85.25146484 26.20898438 85.25146484 26.20898438 87.47802734 27.32226562 C87.47802734 29.96226563 87.47802734 32.60226563 87.47802734 35.32226562 C85.49802734 35.98226562 83.51802734 36.64226563 81.47802734 37.32226562 C82.46802734 38.49789062 82.46802734 38.49789062 83.47802734 39.69726562 C85.47802734 42.32226563 85.47802734 42.32226563 85.47802734 44.32226562 C86.13802734 44.32226562 86.79802734 44.32226562 87.47802734 44.32226562 C87.55217902 49.10942186 87.60662939 53.89624389 87.64282227 58.68383789 C87.65790978 60.31247785 87.67838241 61.94107719 87.7043457 63.56958008 C87.74073183 65.91042098 87.75775355 68.25072481 87.77099609 70.59179688 C87.78647995 71.32002151 87.80196381 72.04824615 87.81791687 72.79853821 C87.81961925 77.9109497 87.81961925 77.9109497 85.98291016 80.12255859 C85.23799316 80.71641357 85.23799316 80.71641357 84.47802734 81.32226562 C84.04553223 84.316679 84.04553223 84.316679 84.04052734 87.63476562 C83.73588312 93.21783724 83.26174257 96.20469318 79.47802734 100.32226562 C74.82932244 103.42140223 70.07256962 102.73084325 64.60302734 102.75976562 C63.51376953 102.79263672 62.42451172 102.82550781 61.30224609 102.859375 C53.2695638 102.91345058 53.2695638 102.91345058 49.34521484 99.98242188 C45.084089 93.91165472 45.47802734 94.28685394 45.47802734 85.32226562 C30.95802734 85.32226562 16.43802734 85.32226562 1.47802734 85.32226562 C1.47802734 88.29226562 1.47802734 91.26226562 1.47802734 94.32226562 C-0.52698146 98.12486852 -1.94883528 99.94017404 -5.52197266 102.32226562 C-9.46494943 102.78711032 -13.42953566 102.69260354 -17.39697266 102.69726562 C-18.48623047 102.72175781 -19.57548828 102.74625 -20.69775391 102.77148438 C-28.67666277 102.80078269 -28.67666277 102.80078269 -32.65478516 100.54882812 C-37.0092546 95.35625996 -36.84667122 90.96550954 -37.08056641 84.31835938 C-37.17431684 81.31868961 -37.17431684 81.31868961 -39.03125 80.11816406 C-41.38871505 77.27808662 -40.88980971 74.11294437 -40.81494141 70.59179688 C-40.81069656 69.84137619 -40.80645172 69.09095551 -40.80207825 68.3177948 C-40.78529716 65.92308537 -40.74764756 63.52922029 -40.70947266 61.13476562 C-40.69442501 59.51042883 -40.68073674 57.88607883 -40.66845703 56.26171875 C-40.63539571 52.28157615 -40.58361859 48.302064 -40.52197266 44.32226562 C-39.86197266 44.32226562 -39.20197266 44.32226562 -38.52197266 44.32226562 C-38.23322266 43.53851563 -37.94447266 42.75476562 -37.64697266 41.94726562 C-36.52197266 39.32226562 -36.52197266 39.32226562 -34.52197266 37.32226562 C-36.50197266 36.66226563 -38.48197266 36.00226562 -40.52197266 35.32226562 C-40.52197266 32.68226562 -40.52197266 30.04226562 -40.52197266 27.32226562 C-37.45664101 25.7895998 -34.25442994 26.21950092 -30.89697266 26.25976562 C-29.83736328 26.2665332 -29.83736328 26.2665332 -28.75634766 26.2734375 C-27.01151991 26.28522688 -25.26673566 26.30316238 -23.52197266 26.32226562 C-23.28414062 25.37867188 -23.28414062 25.37867188 -23.04150391 24.41601562 C-20.00901491 13.29130462 -13.00215738 0.17817114 0 0 Z M-7.95922852 16.12158203 C-8.21583252 16.71632324 -8.47243652 17.31106445 -8.73681641 17.92382812 C-9.03007812 18.57867187 -9.32333984 19.23351563 -9.62548828 19.90820312 C-9.90070312 20.58109375 -10.17591797 21.25398438 -10.45947266 21.94726562 C-10.76175781 22.62789062 -11.06404297 23.30851562 -11.37548828 24.00976562 C-12.98614549 27.53611851 -12.98614549 27.53611851 -13.52197266 31.32226562 C10.89802734 31.32226562 35.31802734 31.32226562 60.47802734 31.32226562 C58.201199 24.16330966 58.201199 24.16330966 55.22802734 17.44726562 C54.87224609 16.72796875 54.51646484 16.00867188 54.14990234 15.26757812 C51.26553214 11.91146513 47.46361135 10.56899314 43.16009521 10.03424072 C40.50135411 9.91067358 37.85838271 9.88023607 35.19677734 9.88867188 C33.73830383 9.8808091 33.73830383 9.8808091 32.25036621 9.87278748 C30.2030533 9.86638937 28.15570352 9.86767549 26.10839844 9.8762207 C22.9874497 9.8847399 19.86832733 9.85592289 16.74755859 9.82421875 C14.75146539 9.82260667 12.75536896 9.82318439 10.75927734 9.82617188 C9.83304565 9.8149379 8.90681396 9.80370392 7.95251465 9.79212952 C1.49994939 9.86108648 -3.69185556 10.77921093 -7.95922852 16.12158203 Z M-25.52197266 55.32226562 C-25.77228243 57.73846385 -25.77228243 57.73846385 -25.52197266 60.32226562 C-21.90733706 62.73202269 -19.19978005 62.65465995 -15.02197266 62.63476562 C-14.34521484 62.65087891 -13.66845703 62.66699219 -12.97119141 62.68359375 C-10.01013855 62.68651392 -8.00716574 62.66199648 -5.54150391 60.93554688 C-4.30407664 59.33855148 -4.30407664 59.33855148 -4.70947266 57.19726562 C-5.36552925 55.13262431 -5.36552925 55.13262431 -7.52197266 54.32226562 C-10.19948684 54.22416705 -12.84506983 54.18322592 -15.52197266 54.19726562 C-16.25931641 54.19339844 -16.99666016 54.18953125 -17.75634766 54.18554688 C-21.76918907 54.1080915 -21.76918907 54.1080915 -25.52197266 55.32226562 Z M52.45849609 55.70507812 C51.2659961 57.31231623 51.2659961 57.31231623 51.66552734 59.44726562 C52.32158394 61.51190694 52.32158394 61.51190694 54.47802734 62.32226562 C56.9705611 62.44645908 59.4229349 62.50742076 61.91552734 62.50976562 C62.59679687 62.52201172 63.27806641 62.53425781 63.97998047 62.546875 C67.70632544 62.5578241 69.29794306 62.44232182 72.47802734 60.32226562 C72.09898527 57.03150566 72.09898527 57.03150566 70.47802734 54.32226562 C67.83873637 54.16874982 65.24362776 54.09063502 62.60302734 54.07226562 C61.86955078 54.05164063 61.13607422 54.03101563 60.38037109 54.00976562 C56.17348978 53.95332468 56.17348978 53.95332468 52.45849609 55.70507812 Z M5.47802734 63.32226562 C3.49802734 67.28226562 1.51802734 71.24226563 -0.52197266 75.32226562 C15.64802734 75.32226562 31.81802734 75.32226562 48.47802734 75.32226562 C47.81802734 74.99226563 47.15802734 74.66226563 46.47802734 74.32226562 C46.20990234 73.27039063 45.94177734 72.21851562 45.66552734 71.13476562 C44.23984296 66.55756838 42.84527968 64.68951797 39.47802734 61.32226562 C34.23524846 58.76563544 29.32627529 58.95482606 23.60302734 58.94726562 C22.63494141 58.92277344 21.66685547 58.89828125 20.66943359 58.87304688 C14.35999719 58.84729407 10.34385385 59.14984929 5.47802734 63.32226562 Z " fill="#EBB76D" transform="translate(40.52197265625,12.677734375)"/>
</svg>
