<?xml version="1.0" encoding="UTF-8"?>
<svg version="1.1" xmlns="http://www.w3.org/2000/svg" width="128" height="128">
<path d="M0 0 C0.495 0.495 0.495 0.495 1 1 C0.984375 2.96875 0.984375 2.96875 0.75 5.5 C0.68296875 6.3146875 0.6159375 7.129375 0.546875 7.96875 C0.08706571 10.51740719 -0.5209161 12.70420728 -1.35180664 15.14233398 C-1.75693985 16.33891129 -1.75693985 16.33891129 -2.17025757 17.55966187 C-2.44407257 18.36497345 -2.71788757 19.17028503 -3 20 C-3.48178558 21.44178067 -3.9625263 22.88391097 -4.44213867 24.32641602 C-7.96142578 34.88427734 -11.48071289 45.44213867 -15 56 C-14.19256348 56.02505615 -13.38512695 56.0501123 -12.55322266 56.07592773 C-8.91031083 56.19165487 -5.26767274 56.31448635 -1.625 56.4375 C-0.35398437 56.47681641 0.91703125 56.51613281 2.2265625 56.55664062 C3.43828125 56.59853516 4.65 56.64042969 5.8984375 56.68359375 C7.01911621 56.72025146 8.13979492 56.75690918 9.29443359 56.79467773 C12 57 12 57 14 58 C14.87381965 61.80735706 15.19834406 63.36292066 14 67 C10.26603052 70.73396948 6.12419379 73.69947685 1.80371094 76.71728516 C-0.6383226 78.45394517 -2.94015643 80.34234964 -5.25 82.25 C-9.09154266 85.33317987 -13.05215078 88.16510558 -17.10546875 90.9609375 C-26.40461707 97.51175454 -35.43758051 104.4298613 -44.19140625 111.69140625 C-47.61440345 114.50502425 -51.08178877 117.25830741 -54.5625 120 C-55.17109863 120.48154541 -55.77969727 120.96309082 -56.40673828 121.45922852 C-60.36260847 124.56773269 -62.48090286 126.14676058 -67.5 126.1875 C-68.2940625 126.20167969 -69.088125 126.21585937 -69.90625 126.23046875 C-72 126 -72 126 -74 124 C-73.7090406 117.38253869 -71.68720585 111.62220185 -69.4375 105.4375 C-68.71585382 103.41156233 -67.99450907 101.38551726 -67.2734375 99.359375 C-66.90057617 98.31974609 -66.52771484 97.28011719 -66.14355469 96.20898438 C-63.89002291 89.88523935 -61.71712283 83.53321092 -59.52709961 77.18725586 C-59.0515564 75.81645874 -59.0515564 75.81645874 -58.56640625 74.41796875 C-58.14790405 73.20790161 -58.14790405 73.20790161 -57.72094727 71.97338867 C-57 70 -57 70 -56 68 C-56.83249268 68.01047363 -57.66498535 68.02094727 -58.52270508 68.03173828 C-61.61449156 68.06584442 -64.70618208 68.09091076 -67.7980957 68.10986328 C-69.79319618 68.12485495 -71.78820946 68.15026731 -73.78320312 68.17578125 C-75.03681641 68.18222656 -76.29042969 68.18867187 -77.58203125 68.1953125 C-78.73936768 68.20578613 -79.8967041 68.21625977 -81.08911133 68.22705078 C-84 68 -84 68 -87 66 C-87.5 62.625 -87.5 62.625 -87 59 C-84.76953125 56.98828125 -84.76953125 56.98828125 -82 55 C-80.84564453 54.16662109 -80.84564453 54.16662109 -79.66796875 53.31640625 C-78.44013672 52.44822266 -78.44013672 52.44822266 -77.1875 51.5625 C-72.42088209 48.11852271 -67.85515511 44.48313844 -63.3125 40.75 C-55.96983686 34.72262369 -48.44080727 28.98832557 -40.80615234 23.33740234 C-38.21834724 21.42120927 -35.63977795 19.49282141 -33.0625 17.5625 C-32.11761719 16.86382813 -31.17273438 16.16515625 -30.19921875 15.4453125 C-27.68020264 13.55422739 -25.25515672 11.56693755 -22.83203125 9.5546875 C-22.09525146 8.95712646 -21.35847168 8.35956543 -20.59936523 7.74389648 C-19.15429781 6.57036406 -17.72426716 5.37797915 -16.31274414 4.16430664 C-11.04086662 -0.06745905 -6.71867723 -1.03408633 0 0 Z " fill="#9EBD57" transform="translate(99,2)"/>
</svg>
