<?xml version="1.0" encoding="UTF-8"?>
<svg version="1.1" xmlns="http://www.w3.org/2000/svg" width="128" height="128">
<path d="M0 0 C13.480001 10.17668264 22.05008991 24.69579857 25.37890625 41.1875 C25.78212621 44.97093228 25.85705251 48.69731658 25.81640625 52.5 C25.80504639 54.00385254 25.80504639 54.00385254 25.79345703 55.53808594 C25.398291 73.42728092 18.05050301 88.92491915 5.13671875 101.34375 C-7.10371862 111.7782212 -20.50574152 116.57258744 -36.45874023 116.61303711 C-38.65399971 116.62484087 -40.8463558 116.67399567 -43.04101562 116.72460938 C-59.91983362 116.91914385 -74.07298598 110.06885273 -86.42578125 98.6015625 C-97.75830037 86.13982439 -103.52305383 71.58648202 -103.27294922 54.82177734 C-103.24609972 52.68797458 -103.27285666 50.55942717 -103.3046875 48.42578125 C-103.34719359 31.74461067 -96.31771395 17.53661017 -85.03515625 5.3828125 C-61.28634486 -16.21400303 -26.1875057 -18.10879679 0 0 Z " fill="#9FBE58" transform="translate(102.62109375,11.8125)"/>
<path d="M0 0 C2.05078125 0.03255208 4.1015625 0.06510417 6.15234375 0.09765625 C5.70377558 8.6204515 2.96496356 16.12856678 0.15234375 24.09765625 C-0.39363134 25.72121376 -0.93612925 27.34595205 -1.47265625 28.97265625 C-1.93067224 30.34776199 -2.38905085 31.72274697 -2.84765625 33.09765625 C-3.10853027 33.88027832 -3.3694043 34.66290039 -3.63818359 35.46923828 C-4.37467448 37.67871094 -5.11116536 39.88818359 -5.84765625 42.09765625 C-5.21674072 42.09241943 -4.5858252 42.08718262 -3.93579102 42.08178711 C-1.09392278 42.06107799 1.74792963 42.04801559 4.58984375 42.03515625 C6.07967773 42.02258789 6.07967773 42.02258789 7.59960938 42.00976562 C8.54384766 42.00654297 9.48808594 42.00332031 10.4609375 42 C11.33548584 41.99476318 12.21003418 41.98952637 13.11108398 41.98413086 C15.15234375 42.09765625 15.15234375 42.09765625 16.15234375 43.09765625 C16.5078125 45.421875 16.5078125 45.421875 16.15234375 48.09765625 C14.265625 49.9921875 14.265625 49.9921875 11.46484375 51.91015625 C10.35919559 52.69061377 9.25515722 53.47335457 8.15234375 54.2578125 C7.52457031 54.69883301 6.89679688 55.13985352 6.25 55.59423828 C2.08230921 58.58127738 -1.96527344 61.72946695 -6.03515625 64.84765625 C-7.85397926 66.23462079 -9.67299004 67.62133913 -11.4921875 69.0078125 C-14.90936924 71.61574263 -18.32350803 74.22756693 -21.734375 76.84375 C-22.87386597 77.71725098 -22.87386597 77.71725098 -24.03637695 78.60839844 C-25.44327846 79.68741569 -26.84942737 80.76741532 -28.25463867 81.84863281 C-30.11259278 83.27366786 -31.97748653 84.68869981 -33.84765625 86.09765625 C-34.48292236 86.57952393 -35.11818848 87.0613916 -35.77270508 87.55786133 C-40.50214723 91.06089997 -40.50214723 91.06089997 -43.78515625 91.41015625 C-44.46578125 91.30703125 -45.14640625 91.20390625 -45.84765625 91.09765625 C-47.45484775 86.24755172 -45.96168607 82.56341577 -44.28515625 77.97265625 C-43.72755717 76.37946864 -43.17162599 74.78569651 -42.6171875 73.19140625 C-42.18140381 71.95003906 -42.18140381 71.95003906 -41.73681641 70.68359375 C-40.23177479 66.30649304 -38.85369598 61.89014033 -37.47265625 57.47265625 C-37.21025146 56.63718262 -36.94784668 55.80170898 -36.67749023 54.94091797 C-36.06616057 52.99359832 -35.45668852 51.04569564 -34.84765625 49.09765625 C-35.74073486 49.1133667 -35.74073486 49.1133667 -36.65185547 49.12939453 C-39.34207968 49.17089574 -42.03223662 49.19696329 -44.72265625 49.22265625 C-45.65980469 49.23941406 -46.59695312 49.25617188 -47.5625 49.2734375 C-48.45839844 49.27988281 -49.35429688 49.28632812 -50.27734375 49.29296875 C-51.10476074 49.30344238 -51.93217773 49.31391602 -52.78466797 49.32470703 C-54.84765625 49.09765625 -54.84765625 49.09765625 -56.84765625 47.09765625 C-56.7415549 43.72475022 -56.1317898 42.38978605 -53.765625 39.95703125 C-52.86457031 39.2609375 -51.96351562 38.56484375 -51.03515625 37.84765625 C-49.53855469 36.67976563 -49.53855469 36.67976563 -48.01171875 35.48828125 C-46.96757813 34.699375 -45.9234375 33.91046875 -44.84765625 33.09765625 C-43.86539063 32.35 -42.883125 31.60234375 -41.87109375 30.83203125 C-38.87497627 28.57110882 -35.863979 26.33153471 -32.84765625 24.09765625 C-25.55265647 18.6799711 -18.33428006 13.17415733 -11.16015625 7.59765625 C-9.95528564 6.66143433 -9.95528564 6.66143433 -8.72607422 5.70629883 C-1.50442536 0.07951508 -1.50442536 0.07951508 0 0 Z " fill="#FDFDFC" transform="translate(79.84765625,18.90234375)"/>
</svg>
